<?xml version="1.0" encoding="UTF-8" standalone="no"?>
<svg
   xmlns:dc="http://purl.org/dc/elements/1.1/"
   xmlns:cc="http://creativecommons.org/ns#"
   xmlns:rdf="http://www.w3.org/1999/02/22-rdf-syntax-ns#"
   xmlns:svg="http://www.w3.org/2000/svg"
   xmlns="http://www.w3.org/2000/svg"
   viewBox="0 0 946.26666 388.30667"
   height="388.30667"
   width="946.26666"
   xml:space="preserve"
   id="svg2"
   version="1.1"><metadata
     id="metadata8"><rdf:RDF><cc:Work
         rdf:about=""><dc:format>image/svg+xml</dc:format><dc:type
           rdf:resource="http://purl.org/dc/dcmitype/StillImage" /></cc:Work></rdf:RDF></metadata><defs
     id="defs6" /><g
     transform="matrix(1.3333333,0,0,-1.3333333,0,388.30667)"
     id="g10"><g
       transform="scale(0.1)"
       id="g12"><path
         id="path14"
         style="fill:none;stroke:#181817;stroke-width:37.49119949;stroke-linecap:round;stroke-linejoin:round;stroke-miterlimit:10;stroke-dasharray:none;stroke-opacity:1"
         d="m 4050.25,1968.48 h -308.37 v 308.37 h 308.37 z" /><path
         id="path16"
         style="fill:none;stroke:#181817;stroke-width:37.49119949;stroke-linecap:round;stroke-linejoin:round;stroke-miterlimit:10;stroke-dasharray:none;stroke-opacity:1"
         d="M 3125.16,1968.48 H 2816.8 v 308.37 z" /><path
         id="path18"
         style="fill:none;stroke:#181817;stroke-width:37.49119949;stroke-linecap:round;stroke-linejoin:round;stroke-miterlimit:10;stroke-dasharray:none;stroke-opacity:1"
         d="m 2508.43,2276.85 v -616.73 h 308.37 v 616.73 z" /><path
         id="path20"
         style="fill:none;stroke:#181817;stroke-width:37.49119949;stroke-linecap:round;stroke-linejoin:round;stroke-miterlimit:10;stroke-dasharray:none;stroke-opacity:1"
         d="m 3125.16,2585.21 v -616.73 l 308.37,-308.36 v 925.09 z" /><path
         id="path22"
         style="fill:none;stroke:#181817;stroke-width:37.49119949;stroke-linecap:round;stroke-linejoin:round;stroke-miterlimit:10;stroke-dasharray:none;stroke-opacity:1"
         d="m 5438.28,1968.48 h -308.37 v 308.37 z" /><path
         id="path24"
         style="fill:none;stroke:#181817;stroke-width:37.49119949;stroke-linecap:round;stroke-linejoin:round;stroke-miterlimit:10;stroke-dasharray:none;stroke-opacity:1"
         d="m 4821.55,2276.85 v -616.73 h 308.36 v 616.73 z" /><path
         id="path26"
         style="fill:none;stroke:#181817;stroke-width:37.49119949;stroke-linecap:round;stroke-linejoin:round;stroke-miterlimit:10;stroke-dasharray:none;stroke-opacity:1"
         d="m 5438.28,2585.21 v -616.73 l 308.36,-308.36 v 925.09 z" /><path
         id="path28"
         style="fill:none;stroke:#181817;stroke-width:37.49119949;stroke-linecap:round;stroke-linejoin:round;stroke-miterlimit:10;stroke-dasharray:none;stroke-opacity:1"
         d="m 3433.53,2893.57 v -925.09 h 308.35 v 925.09 z" /><path
         id="path30"
         style="fill:none;stroke:#181817;stroke-width:37.49119949;stroke-linecap:round;stroke-linejoin:round;stroke-miterlimit:10;stroke-dasharray:none;stroke-opacity:1"
         d="m 4050.25,1968.48 h 771.3" /><path
         id="path32"
         style="fill:none;stroke:#181817;stroke-width:37.49119949;stroke-linecap:round;stroke-linejoin:round;stroke-miterlimit:10;stroke-dasharray:none;stroke-opacity:1"
         d="M 5746.64,1968.48 H 7078.22" /><path
         id="path34"
         style="fill:#181817;fill-opacity:1;fill-rule:nonzero;stroke:none"
         d="M 91.2109,2101.74 V 1642.05 H 0 v 459.69 h 91.2109" /><path
         id="path36"
         style="fill:#181817;fill-opacity:1;fill-rule:nonzero;stroke:none"
         d="m 320.316,1972.59 c 95.586,0 148.122,-62.75 155.422,-140.09 l -73.695,-5.11 c -6.57,48.15 -33.566,78.07 -81.727,78.07 -48.16,0 -81.722,-35.75 -81.722,-102.89 0,-66.39 33.562,-102.14 81.722,-102.14 48.161,0 75.157,30.64 81.727,79.53 l 73.695,-6.57 c -7.3,-77.35 -59.836,-140.09 -155.422,-140.09 -99.23,0 -170.011,67.13 -170.011,169.27 0,102.16 70.781,170.02 170.011,170.02" /><path
         id="path38"
         style="fill:#181817;fill-opacity:1;fill-rule:nonzero;stroke:none"
         d="m 755.906,1835.42 c -2.918,37.2 -25.535,72.96 -74.426,72.96 -48.16,0 -72.238,-32.84 -80.265,-72.96 z m 83.188,-88.3 c -16.789,-71.51 -72.242,-113.82 -154.696,-113.82 -99.23,0 -170.746,63.47 -170.746,164.9 0,101.42 72.243,174.39 168.555,174.39 105.078,0 159.07,-72.97 159.07,-160.52 v -31.38 H 599.758 c 2.918,-47.43 40.129,-81 87.555,-81 43.058,0 68.593,18.25 81,54.73 l 70.781,-7.3" /><path
         id="path40"
         style="fill:#181817;fill-opacity:1;fill-rule:nonzero;stroke:none"
         d="m 985.012,2101.74 v -459.69 h -87.563 v 459.69 h 87.563" /><path
         id="path42"
         style="fill:#181817;fill-opacity:1;fill-rule:nonzero;stroke:none"
         d="m 1252.06,1789.44 -60.57,-13.13 c -37.94,-8.02 -64.94,-14.6 -64.94,-46.7 0,-21.89 16.78,-35.02 44.51,-35.02 45.97,0 81,35.02 81,86.83 z m 85.37,-69.32 c 0,-16.77 8.75,-24.8 22.62,-24.8 8.75,0 17.51,2.19 27,6.56 v -46.7 c -13.87,-10.95 -31.38,-20.43 -60.57,-20.43 -36.48,0 -59.83,21.16 -67.86,56.18 -18.24,-37.2 -62.02,-56.91 -109.45,-56.91 -67.13,0 -107.99,33.56 -107.99,89.02 0,61.29 49.62,86.84 122.59,101.43 l 88.29,17.51 v 7.29 c 0,35.76 -18.97,57.65 -56.19,57.65 -36.49,0 -56.18,-21.89 -63.48,-53.26 l -79.53,7.29 c 10.94,65.68 61.29,111.64 146.66,111.64 83.19,0 137.91,-39.4 137.91,-124.04 v -128.43" /><path
         id="path44"
         style="fill:#181817;fill-opacity:1;fill-rule:nonzero;stroke:none"
         d="m 1516.18,1642.05 h -87.57 v 321.78 h 87.57 v -52.54 c 16.05,36.49 56.91,61.3 105.07,61.3 86.1,0 117.48,-58.38 117.48,-129.88 v -200.66 h -87.56 v 183.15 c 0,49.62 -19.71,78.08 -62.76,78.08 -44.5,0 -72.23,-35.03 -72.23,-89.03 v -172.2" /><path
         id="path46"
         style="fill:#181817;fill-opacity:1;fill-rule:nonzero;stroke:none"
         d="m 2046.63,1809.15 c 0,58.37 -35.75,94.85 -85.37,94.85 -54.73,0 -83.18,-40.13 -83.18,-101.43 0,-60.55 28.45,-100.69 83.18,-100.69 49.62,0 85.37,35.75 85.37,94.86 z m -0.73,-105.8 c -14.59,-38.68 -54,-70.05 -110.91,-70.05 -95.59,0 -145.2,74.42 -145.2,169.27 0,94.87 49.61,170.02 145.2,170.02 56.91,0 96.32,-31.37 110.91,-70.78 v 199.93 h 87.56 v -459.69 h -87.56 v 61.3" /><path
         id="path48"
         style="fill:#181817;fill-opacity:1;fill-rule:nonzero;stroke:none"
         d="M 91.2109,1347.12 V 963.32 H 334.195 V 887.43 H 0 v 459.69 h 91.2109" /><path
         id="path50"
         style="fill:#181817;fill-opacity:1;fill-rule:nonzero;stroke:none"
         d="M 478.652,1209.21 V 887.43 H 391.09 v 321.78 z m -89.023,137.91 h 89.75 v -85.38 h -89.75 v 85.38" /><path
         id="path52"
         style="fill:#181817;fill-opacity:1;fill-rule:nonzero;stroke:none"
         d="m 777.07,1080.79 c -2.914,37.21 -25.539,72.97 -74.425,72.97 -48.157,0 -72.235,-32.84 -80.262,-72.97 z M 860.254,992.5 C 843.477,920.988 788.02,878.668 705.566,878.668 c -99.238,0 -170.742,63.48 -170.742,164.912 0,101.42 72.239,174.38 168.555,174.38 105.066,0 159.066,-72.96 159.066,-160.52 v -31.38 H 620.922 c 2.922,-47.419 40.133,-80.99 87.562,-80.99 43.047,0 68.586,18.25 80.993,54.719 l 70.777,-7.289" /><path
         id="path54"
         style="fill:#181817;fill-opacity:1;fill-rule:nonzero;stroke:none"
         d="m 1074.03,1217.96 c 95.59,0 148.13,-62.74 155.42,-140.09 l -73.69,-5.11 c -6.57,48.16 -33.57,78.08 -81.73,78.08 -48.16,0 -81.721,-35.76 -81.721,-102.89 0,-66.399 33.561,-102.149 81.721,-102.149 48.16,0 75.16,30.64 81.73,79.539 l 73.69,-6.57 c -7.29,-77.348 -59.83,-140.102 -155.42,-140.102 -99.233,0 -170.01,67.133 -170.01,169.282 0,102.16 70.777,170.01 170.01,170.01" /><path
         id="path56"
         style="fill:#181817;fill-opacity:1;fill-rule:nonzero;stroke:none"
         d="m 1372.45,887.43 h -87.57 v 459.69 h 87.57 v -190.44 c 16.05,36.48 56.91,61.28 105.07,61.28 86.1,0 117.48,-58.36 117.48,-129.88 V 887.43 h -87.56 v 183.14 c 0,49.62 -19.71,78.08 -62.76,78.08 -44.5,0 -72.23,-35.02 -72.23,-89.03 V 887.43" /><path
         id="path58"
         style="fill:#181817;fill-opacity:1;fill-rule:nonzero;stroke:none"
         d="m 1677.43,1147.92 h -45.97 v 51.8 l 21.89,3.65 c 31.38,5.11 40.14,21.17 47.43,51.08 l 10.22,43.78 h 53.26 v -89.02 h 87.57 v -61.29 h -87.57 V 988.852 c 0,-27.731 12.41,-40.133 38.67,-40.133 17.52,0 35.76,6.57 54.73,15.32 v -57.648 c -23.35,-17.512 -49.62,-27.723 -89.02,-27.723 -49.62,0 -91.21,21.891 -91.21,90.48 v 178.772" /><path
         id="path60"
         style="fill:#181817;fill-opacity:1;fill-rule:nonzero;stroke:none"
         d="m 2130.54,1080.79 c -2.92,37.21 -25.54,72.97 -74.43,72.97 -48.16,0 -72.24,-32.84 -80.26,-72.97 z m 83.18,-88.29 c -16.78,-71.512 -72.24,-113.832 -154.69,-113.832 -99.24,0 -170.74,63.48 -170.74,164.912 0,101.42 72.23,174.38 168.55,174.38 105.07,0 159.07,-72.96 159.07,-160.52 v -31.38 h -241.53 c 2.92,-47.419 40.14,-80.99 87.57,-80.99 43.05,0 68.59,18.25 80.99,54.719 l 70.78,-7.289" /><path
         id="path62"
         style="fill:#181817;fill-opacity:1;fill-rule:nonzero;stroke:none"
         d="m 2361.1,887.43 h -87.56 v 321.78 h 87.56 v -52.53 c 16.05,36.48 56.92,61.28 105.07,61.28 86.11,0 117.48,-58.36 117.48,-129.88 V 887.43 h -87.56 v 183.14 c 0,49.62 -19.7,78.08 -62.75,78.08 -44.51,0 -72.24,-35.02 -72.24,-89.03 V 887.43" /><path
         id="path64"
         style="fill:#181817;fill-opacity:1;fill-rule:nonzero;stroke:none"
         d="m 2707.68,996.879 c 5.1,-38.68 34.29,-58.379 78.8,-58.379 32.11,0 58.37,10.949 58.37,34.301 0,21.879 -14.59,31.379 -46.7,36.479 l -51.07,8.75 c -68.59,10.95 -106.53,36.49 -106.53,96.32 0,61.3 51.8,103.61 133.53,103.61 89.02,0 142.29,-40.12 148.12,-111.64 l -72.24,-2.91 c -5.83,36.48 -30.64,54.72 -76.61,54.72 -31.38,0 -51.81,-13.86 -51.81,-35.75 0,-17.51 11.67,-27.73 35.02,-31.38 l 61.3,-10.21 c 67.86,-10.95 107.99,-39.41 107.99,-99.962 0,-65.68 -56.91,-102.16 -140.1,-102.16 -83.91,0 -148.12,36.48 -153.96,115.293 l 75.89,2.918" /><path
         id="path66"
         style="fill:#181817;fill-opacity:1;fill-rule:nonzero;stroke:none"
         d="m 2992.96,1147.92 h -45.97 v 51.8 l 21.9,3.65 c 31.37,5.11 40.12,21.17 47.42,51.08 l 10.22,43.78 h 53.26 v -89.02 h 87.56 v -61.29 h -87.56 V 988.852 c 0,-27.731 12.41,-40.133 38.68,-40.133 17.51,0 35.75,6.57 54.72,15.32 v -57.648 c -23.35,-17.512 -49.62,-27.723 -89.02,-27.723 -49.61,0 -91.21,21.891 -91.21,90.48 v 178.772" /><path
         id="path68"
         style="fill:#181817;fill-opacity:1;fill-rule:nonzero;stroke:none"
         d="m 3446.07,1080.79 c -2.92,37.21 -25.53,72.97 -74.42,72.97 -48.16,0 -72.24,-32.84 -80.27,-72.97 z m 83.19,-88.29 c -16.79,-71.512 -72.24,-113.832 -154.69,-113.832 -99.24,0 -170.75,63.48 -170.75,164.912 0,101.42 72.24,174.38 168.55,174.38 105.08,0 159.08,-72.96 159.08,-160.52 v -31.38 h -241.53 c 2.92,-47.419 40.13,-80.99 87.56,-80.99 43.06,0 68.59,18.25 81,54.719 l 70.78,-7.289" /><path
         id="path70"
         style="fill:#181817;fill-opacity:1;fill-rule:nonzero;stroke:none"
         d="M 3676.63,1209.21 V 887.43 h -87.56 v 321.78 z m -89.01,137.91 h 89.74 v -85.38 h -89.74 v 85.38" /><path
         id="path72"
         style="fill:#181817;fill-opacity:1;fill-rule:nonzero;stroke:none"
         d="m 3839.35,887.43 h -87.57 v 321.78 h 87.57 v -52.53 c 16.04,36.48 56.91,61.28 105.06,61.28 86.11,0 117.47,-58.36 117.47,-129.88 V 887.43 h -87.55 v 183.14 c 0,49.62 -19.7,78.08 -62.76,78.08 -44.5,0 -72.22,-35.02 -72.22,-89.03 V 887.43" /><path
         id="path74"
         style="fill:#181817;fill-opacity:1;fill-rule:nonzero;stroke:none"
         d="M 307.926,286.031 V 592.5 h 84.64 V 132.801 H 319.602 L 84.6484,456.77 V 132.801 H 0 V 592.5 H 90.4844 L 307.926,286.031" /><path
         id="path76"
         style="fill:#181817;fill-opacity:1;fill-rule:nonzero;stroke:none"
         d="m 620.203,190.449 c 53.996,0 81.723,42.313 81.723,102.883 0,61.289 -27.727,103.609 -81.723,103.609 -53.269,0 -80.992,-42.32 -80.992,-103.609 0,-60.57 27.723,-102.883 80.992,-102.883 z m 0,-66.41 c -99.234,0 -169.285,69.32 -169.285,169.293 0,99.957 70.051,170.008 169.285,170.008 99.965,0 170.012,-70.051 170.012,-170.008 0,-99.973 -70.047,-169.293 -170.012,-169.293" /><path
         id="path78"
         style="fill:#181817;fill-opacity:1;fill-rule:nonzero;stroke:none"
         d="m 1061.64,368.48 c -16.78,9.481 -31.38,13.872 -52.54,13.872 -45.237,0 -75.881,-32.114 -75.881,-90.493 V 132.801 H 845.652 V 454.59 h 87.567 v -61.301 c 11.676,36.481 45.238,70.051 89.751,70.051 19.7,0 35.75,-5.11 45.24,-13.141 l -6.57,-81.719" /><path
         id="path80"
         style="fill:#181817;fill-opacity:1;fill-rule:nonzero;stroke:none"
         d="m 1426.46,240.051 h 2.92 l 66.4,214.539 h 79.53 L 1473.15,132.801 h -84.63 l -58.38,212.328 h -2.92 l -58.37,-212.328 h -85.37 L 1081.32,454.59 h 86.83 l 67.13,-214.539 h 2.92 l 58.37,214.539 h 70.78 l 59.11,-214.539" /><path
         id="path82"
         style="fill:#181817;fill-opacity:1;fill-rule:nonzero;stroke:none"
         d="m 1802.22,280.191 -60.56,-13.132 c -37.95,-8.028 -64.95,-14.59 -64.95,-46.7 0,-21.898 16.79,-35.019 44.51,-35.019 45.97,0 81,35.019 81,86.82 z m 85.37,-69.32 c 0,-16.781 8.76,-24.812 22.62,-24.812 8.75,0 17.51,2.191 27,6.57 V 145.93 c -13.87,-10.942 -31.38,-20.43 -60.56,-20.43 -36.49,0 -59.84,21.16 -67.87,56.191 -18.24,-37.222 -62.02,-56.921 -109.44,-56.921 -67.13,0 -108,33.57 -108,89.019 0,61.289 49.62,86.832 122.59,101.422 l 88.29,17.519 v 7.301 c 0,35.75 -18.97,57.641 -56.18,57.641 -36.49,0 -56.19,-21.891 -63.49,-53.274 l -79.53,7.301 c 10.94,65.672 61.29,111.641 146.66,111.641 83.18,0 137.91,-39.399 137.91,-124.051 V 210.871" /><path
         id="path84"
         style="fill:#181817;fill-opacity:1;fill-rule:nonzero;stroke:none"
         d="m 2012.34,13.1289 49.62,118.1991 -133.53,323.262 h 91.94 l 87.56,-219.641 h 2.92 l 86.83,219.641 h 85.38 L 2098.45,13.1289 h -86.11" /><path
         id="path86"
         style="fill:#181817;fill-opacity:1;fill-rule:nonzero;stroke:none"
         d="m 2539.14,427.578 c -51.08,0 -81.73,-28.449 -81.73,-77.34 0,-48.148 30.65,-76.617 81.73,-76.617 52.53,0 83.18,28.469 83.18,76.617 0,48.891 -30.65,77.34 -83.18,77.34 z M 2533.3,32.1094 c 78.8,0 134.99,18.9609 134.99,73.6916 0,33.558 -28.46,45.961 -70.78,45.961 h -99.96 c -38.68,0 -72.24,-12.403 -72.24,-53.262 0,-46.6992 44.5,-66.3906 107.99,-66.3906 z m 5.84,211.6016 c -26.27,0 -49.62,4.367 -69.33,13.859 -13.13,-6.57 -26.26,-19.699 -26.26,-36.48 0,-19.711 10.94,-29.918 41.59,-29.918 h 122.58 c 67.87,0 103.62,-35.024 103.62,-83.91 C 2711.34,29.1914 2625.97,0 2533.3,0 c -83.92,0 -153.23,29.1914 -153.23,87.5508 0,38.6792 27,62.7582 67.13,71.5192 -29.19,8.75 -40.86,28.461 -40.86,51.801 0,27 18.97,45.238 44.51,58.367 -24.81,18.25 -39.4,46.703 -39.4,81.731 0,66.402 53.26,107.261 127.69,107.261 40.86,0 75.88,-12.402 98.51,-35.019 16.77,25.539 44.5,43.051 78.07,43.051 v -43.051 c -24.08,0 -49.62,-6.57 -64.94,-15.32 10.94,-16.063 16.78,-35.032 16.78,-56.922 0,-66.399 -54,-107.258 -128.42,-107.258" /><path
         id="path88"
         style="fill:#181817;fill-opacity:1;fill-rule:nonzero;stroke:none"
         d="m 2931.67,404.969 c -18.24,9.48 -29.18,12.402 -48.15,12.402 -45.97,0 -83.19,-47.43 -83.19,-110.91 v -173.66 h -44.5 V 449.48 h 44.5 v -66.41 c 12.41,36.489 44.51,75.16 91.21,75.16 19.71,0 33.57,-4.378 45.24,-14.589 l -5.11,-38.672" /><path
         id="path90"
         style="fill:#181817;fill-opacity:1;fill-rule:nonzero;stroke:none"
         d="m 3178.3,296.25 -77.35,-16.789 c -57.64,-12.402 -93.4,-24.07 -93.4,-66.402 0,-29.918 19.71,-54.719 61.3,-54.719 62.02,0 109.45,47.43 109.45,118.199 z m 42.32,-110.191 c 0,-16.778 10.21,-24.797 26.26,-24.797 7.3,0 19.71,2.918 28.46,8.019 v -24.082 c -9.48,-10.949 -19.7,-18.969 -41.59,-18.969 -31.38,0 -53.99,27 -55.45,67.129 -16.79,-37.211 -63.49,-69.32 -117.48,-69.32 -59.11,0 -98.51,32.832 -98.51,87.563 0,59.828 52.54,83.91 131.34,99.968 l 84.65,17.508 v 16.051 c 0,48.16 -28.46,78.082 -78.08,78.082 -51.08,0 -79.54,-29.922 -90.48,-70.781 l -37.94,7.289 c 12.4,56.922 59.1,98.511 127.69,98.511 78.81,0 121.13,-41.589 121.13,-119.671 v -152.5" /><path
         id="path92"
         style="fill:#181817;fill-opacity:1;fill-rule:nonzero;stroke:none"
         d="m 3366.53,132.801 h -44.5 V 449.48 h 44.5 v -58.378 c 15.33,38.668 59.11,67.128 106.54,67.128 81.72,0 116.02,-53.261 116.02,-129.152 V 132.801 h -44.51 v 197.738 c 0,56.18 -29.19,92.672 -83.18,92.672 -50.36,0 -94.87,-39.41 -94.87,-100.691 V 132.801" /><path
         id="path94"
         style="fill:#181817;fill-opacity:1;fill-rule:nonzero;stroke:none"
         d="m 3680.27,416.641 h -48.89 v 21.89 l 18.97,3.649 c 29.19,5.832 35.03,19.699 41.59,50.351 l 9.5,45.239 h 22.61 v -88.29 h 91.94 v -32.839 h -91.94 v -214.52 c 0,-28.461 11.67,-42.332 40.86,-42.332 21.9,0 43.78,10.949 62.02,21.902 v -31.382 c -22.61,-17.508 -45.24,-26.27 -77.34,-26.27 -42.32,0 -69.32,21.16 -69.32,78.813 v 213.789" /><path
         id="path96"
         style="fill:#181817;fill-opacity:1;fill-rule:nonzero;stroke:none"
         d="m 3891.12,244.441 c 6.58,-54.73 43.79,-85.371 104.35,-85.371 48.89,0 83.18,18.239 83.18,55.45 0,35.031 -24.81,45.968 -69.31,53.992 L 3954.61,278 c -55.46,9.488 -89.76,35.02 -89.76,86.109 0,56.911 47.44,94.121 116.76,94.121 81.72,0 129.15,-38.671 134.26,-113.832 l -34.3,-2.918 c -8.03,56.911 -41.59,81.731 -99.96,81.731 -45.24,0 -75.15,-20.43 -75.15,-54 0,-30.652 18.24,-45.973 57.63,-52.531 l 58.38,-9.489 c 62.02,-10.222 98.51,-32.113 98.51,-88.293 0,-62.027 -55.46,-94.859 -124.78,-94.859 -76.62,0 -135.72,37.949 -140.83,116.012 l 35.75,4.39" /><path
         id="path98"
         style="fill:#181817;fill-opacity:1;fill-rule:nonzero;stroke:none"
         d="m 5119.86,1040.66 v 306.46 h 84.64 V 887.43 h -72.97 L 4896.58,1211.4 V 887.43 h -84.64 v 459.69 h 90.48 l 217.44,-306.46" /><path
         id="path100"
         style="fill:#181817;fill-opacity:1;fill-rule:nonzero;stroke:none"
         d="m 5432.14,945.07 c 54,0 81.73,42.321 81.73,102.88 0,61.29 -27.73,103.62 -81.73,103.62 -53.26,0 -81,-42.33 -81,-103.62 0,-60.559 27.74,-102.88 81,-102.88 z m 0,-66.402 c -99.24,0 -169.28,69.312 -169.28,169.282 0,99.97 70.04,170.01 169.28,170.01 99.97,0 170.02,-70.04 170.02,-170.01 0,-99.97 -70.05,-169.282 -170.02,-169.282" /><path
         id="path102"
         style="fill:#181817;fill-opacity:1;fill-rule:nonzero;stroke:none"
         d="m 5873.58,1123.11 c -16.78,9.48 -31.38,13.87 -52.54,13.87 -45.24,0 -75.88,-32.11 -75.88,-90.49 V 887.43 h -87.56 v 321.78 h 87.56 v -61.29 c 11.67,36.48 45.24,70.04 89.74,70.04 19.71,0 35.75,-5.1 45.25,-13.13 l -6.57,-81.72" /><path
         id="path104"
         style="fill:#181817;fill-opacity:1;fill-rule:nonzero;stroke:none"
         d="m 6238.39,994.68 h 2.93 l 66.39,214.53 h 79.54 L 6285.09,887.43 h -84.64 l -58.37,212.33 h -2.92 l -58.37,-212.33 h -85.38 l -102.15,321.78 h 86.83 l 67.13,-214.53 h 2.92 l 58.38,214.53 h 70.77 l 59.1,-214.53" /><path
         id="path106"
         style="fill:#181817;fill-opacity:1;fill-rule:nonzero;stroke:none"
         d="m 6614.15,1034.82 -60.56,-13.13 c -37.94,-8.03 -64.94,-14.59 -64.94,-46.702 0,-21.898 16.79,-35.019 44.51,-35.019 45.97,0 80.99,35.019 80.99,86.821 z m 85.38,-69.32 c 0,-16.781 8.75,-24.809 22.62,-24.809 8.76,0 17.51,2.188 27,6.571 v -46.703 c -13.87,-10.938 -31.38,-20.43 -60.57,-20.43 -36.48,0 -59.83,21.152 -67.86,56.18 -18.24,-37.207 -62.02,-56.911 -109.45,-56.911 -67.13,0 -107.99,33.563 -107.99,89.02 0,61.292 49.62,86.832 122.59,101.422 l 88.28,17.52 v 7.29 c 0,35.76 -18.96,57.65 -56.18,57.65 -36.49,0 -56.18,-21.89 -63.48,-53.27 l -79.54,7.29 c 10.95,65.68 61.3,111.64 146.67,111.64 83.18,0 137.91,-39.39 137.91,-124.04 V 965.5" /><path
         id="path108"
         style="fill:#181817;fill-opacity:1;fill-rule:nonzero;stroke:none"
         d="m 6824.29,767.762 49.61,118.199 -133.53,323.249 h 91.94 l 87.56,-219.632 h 2.91 l 86.84,219.632 h 85.37 L 6910.38,767.762 h -86.09" /><path
         id="path110"
         style="fill:#181817;fill-opacity:1;fill-rule:nonzero;stroke:none"
         d="m 4938.17,427.578 c -51.07,0 -81.71,-28.449 -81.71,-77.34 0,-48.148 30.64,-76.617 81.71,-76.617 52.54,0 83.19,28.469 83.19,76.617 0,48.891 -30.65,77.34 -83.19,77.34 z m -5.84,-395.4686 c 78.81,0 134.99,18.9609 134.99,73.6916 0,33.558 -28.45,45.961 -70.77,45.961 h -99.97 c -38.67,0 -72.23,-12.403 -72.23,-53.262 0,-46.6992 44.51,-66.3906 107.98,-66.3906 z m 5.84,211.6016 c -26.27,0 -49.62,4.367 -69.31,13.859 -13.14,-6.57 -26.27,-19.699 -26.27,-36.48 0,-19.711 10.95,-29.918 41.59,-29.918 h 122.59 c 67.85,0 103.61,-35.024 103.61,-83.91 C 5110.38,29.1914 5025.01,0 4932.33,0 c -83.9,0 -153.22,29.1914 -153.22,87.5508 0,38.6792 26.99,62.7582 67.13,71.5192 -29.19,8.75 -40.87,28.461 -40.87,51.801 0,27 18.98,45.238 44.51,58.367 -24.8,18.25 -39.4,46.703 -39.4,81.731 0,66.402 53.27,107.261 127.69,107.261 40.86,0 75.89,-12.402 98.51,-35.019 16.79,25.539 44.51,43.051 78.08,43.051 v -43.051 c -24.09,0 -49.62,-6.57 -64.95,-15.32 10.95,-16.063 16.78,-35.032 16.78,-56.922 0,-66.399 -53.98,-107.258 -128.42,-107.258" /><path
         id="path112"
         style="fill:#181817;fill-opacity:1;fill-rule:nonzero;stroke:none"
         d="m 5334.37,404.969 c -18.25,9.48 -29.19,12.402 -48.17,12.402 -45.97,0 -83.18,-47.43 -83.18,-110.91 v -173.66 h -44.51 V 449.48 h 44.51 v -66.41 c 12.41,36.489 44.51,75.16 91.21,75.16 19.71,0 33.57,-4.378 45.24,-14.589 l -5.1,-38.672" /><path
         id="path114"
         style="fill:#181817;fill-opacity:1;fill-rule:nonzero;stroke:none"
         d="m 5584.63,296.25 -77.34,-16.789 c -57.65,-12.402 -93.4,-24.07 -93.4,-66.402 0,-29.918 19.69,-54.719 61.3,-54.719 62.01,0 109.44,47.43 109.44,118.199 z m 42.32,-110.191 c 0,-16.778 10.22,-24.797 26.27,-24.797 7.3,0 19.7,2.918 28.46,8.019 v -24.082 c -9.48,-10.949 -19.7,-18.969 -41.59,-18.969 -31.38,0 -54,27 -55.46,67.129 -16.78,-37.211 -63.48,-69.32 -117.47,-69.32 -59.11,0 -98.52,32.832 -98.52,87.563 0,59.828 52.54,83.91 131.35,99.968 l 84.64,17.508 v 16.051 c 0,48.16 -28.46,78.082 -78.08,78.082 -51.07,0 -79.53,-29.922 -90.48,-70.781 l -37.94,7.289 c 12.41,56.922 59.11,98.511 127.7,98.511 78.8,0 121.12,-41.589 121.12,-119.671 v -152.5" /><path
         id="path116"
         style="fill:#181817;fill-opacity:1;fill-rule:nonzero;stroke:none"
         d="M 5776.51,132.801 H 5732 V 449.48 h 44.51 v -58.378 c 15.34,38.668 59.12,67.128 106.55,67.128 81.72,0 116.01,-53.261 116.01,-129.152 V 132.801 h -44.51 v 197.738 c 0,56.18 -29.19,92.672 -83.18,92.672 -50.35,0 -94.87,-39.41 -94.87,-100.691 V 132.801" /><path
         id="path118"
         style="fill:#181817;fill-opacity:1;fill-rule:nonzero;stroke:none"
         d="m 6093.91,416.641 h -48.9 v 21.89 l 18.97,3.649 c 29.19,5.832 35.03,19.699 41.6,50.351 l 9.49,45.239 h 22.62 v -88.29 h 91.93 v -32.839 h -91.93 v -214.52 c 0,-28.461 11.67,-42.332 40.85,-42.332 21.9,0 43.78,10.949 62.03,21.902 v -31.382 c -22.62,-17.508 -45.25,-26.27 -77.35,-26.27 -42.32,0 -69.31,21.16 -69.31,78.813 v 213.789" /><path
         id="path120"
         style="fill:#181817;fill-opacity:1;fill-rule:nonzero;stroke:none"
         d="m 6308.41,244.441 c 6.56,-54.73 43.78,-85.371 104.33,-85.371 48.9,0 83.19,18.239 83.19,55.45 0,35.031 -24.81,45.968 -69.32,53.992 L 6371.88,278 c -55.44,9.488 -89.74,35.02 -89.74,86.109 0,56.911 47.43,94.121 116.75,94.121 81.73,0 129.15,-38.671 134.25,-113.832 l -34.28,-2.918 c -8.03,56.911 -41.6,81.731 -99.97,81.731 -45.25,0 -75.16,-20.43 -75.16,-54 0,-30.652 18.24,-45.973 57.65,-52.531 l 58.37,-9.489 c 62.02,-10.222 98.5,-32.113 98.5,-88.293 0,-62.027 -55.45,-94.859 -124.77,-94.859 -76.61,0 -135.72,37.949 -140.83,116.012 l 35.76,4.39" /></g></g></svg>