<svg xmlns="http://www.w3.org/2000/svg" viewBox="0 0 228 31.96"><defs><style>.cls-1{fill:#fff;}</style></defs><title>handsfinal</title><g id="Layer_2" data-name="Layer 2"><g id="Layer_1-2" data-name="Layer 1"><path class="cls-1" d="M0,0V32H228V0ZM34.86,20.2c-.54-.62-.15-1.67.45-2.25h0a1.45,1.45,0,0,1,2.05,0,1.23,1.23,0,0,1,.34.87L36,20.45A1,1,0,0,1,34.86,20.2Zm1.59,1.63a.9.9,0,0,1-.22-.78l1.89-1.92a1.27,1.27,0,0,1,.84.37,1.25,1.25,0,0,1,.34.93l-1.65,1.66A1,1,0,0,1,36.45,21.83ZM38,23.46a.87.87,0,0,1-.21-.73l1.93-1.92a1.26,1.26,0,0,1,.8.36,1.27,1.27,0,0,1,.36.92l-1.64,1.64A1.13,1.13,0,0,1,38,23.46ZM42.09,25c-.61.57-1.85.86-2.39.25a.91.91,0,0,1-.23-.89l1.79-1.79a1.29,1.29,0,0,1,1,.38h0A1.45,1.45,0,0,1,42.09,25Zm9.81-4.68a1.08,1.08,0,0,1-1.52,0s-1.78-1.82-1.91-1.68,1.66,2,1.66,2a1.06,1.06,0,0,1-1.53,1.45,17.44,17.44,0,0,0-2.5-2c-.15.15,1.74,1.83,1.74,1.83l.14.14a1.08,1.08,0,0,1-1.52,1.52,15.75,15.75,0,0,0-2.06-1.89c-.12.12,1.39,1.71,1.39,1.71a1.08,1.08,0,0,1-1.52,1.52c-.22-.22-.57-.61-.57-.61A2.47,2.47,0,0,0,43,22.17a2.4,2.4,0,0,0-1-.62,2.38,2.38,0,0,0-1.62-1.75,2.33,2.33,0,0,0-.59-1,2.37,2.37,0,0,0-1-.61,2.34,2.34,0,0,0-.59-1,2.7,2.7,0,0,0-3.7,0,2.79,2.79,0,0,0-.68,1.08,12.65,12.65,0,0,0-1.32-.46V9.25l2.42.86a2.45,2.45,0,0,0,2.18-.06S40.22,8,41.72,8a2.82,2.82,0,0,1,2.18.86s-2.25,1.2-3.22,1.87A2.44,2.44,0,0,0,42,15.25a3.54,3.54,0,0,0,1.45-.48c.64-.3,1.48-.69,2.14-1a1.54,1.54,0,0,1,1.63.3l4.69,4.68h0A1.08,1.08,0,0,1,51.9,20.31ZM57,17.49s-1.58.31-1.91.36A2.27,2.27,0,0,1,53,17.5c-1.15-1.1-5.23-5.14-5.23-5.14a1.55,1.55,0,0,0-1.8-.12c-1,.57-2.56,1.37-3.21,1.68a1.45,1.45,0,0,1-2.18-1.15,1.5,1.5,0,0,1,.91-1.31c1.45-.89,4.53-2.61,5.81-3.29.78-.41,1.34-.45,2.41.45,1.31,1.1,2.49,2.11,2.49,2.11a1.22,1.22,0,0,0,1,.19c1.46-.31,3.8-.86,3.8-.86Zm12.3,2.72c-.54-.62-.15-1.67.45-2.25h0a1.45,1.45,0,0,1,2.05,0,1.23,1.23,0,0,1,.34.87l-1.7,1.68A1,1,0,0,1,69.28,20.2Zm1.58,1.6a.9.9,0,0,1-.22-.78l1.89-1.89a1.27,1.27,0,0,1,.84.37,1.25,1.25,0,0,1,.34.93l-1.66,1.63A1,1,0,0,1,70.86,21.8Zm1.6,1.65a.87.87,0,0,1-.21-.73l1.92-1.92a1.26,1.26,0,0,1,.8.36,1.27,1.27,0,0,1,.36.92l-1.64,1.64A1.13,1.13,0,0,1,72.46,23.45Zm4,1.55c-.61.57-1.85.86-2.39.25a.91.91,0,0,1-.23-.89l1.79-1.79a1.29,1.29,0,0,1,1,.38h0A1.45,1.45,0,0,1,76.51,25Zm9.81-4.68a1.08,1.08,0,0,1-1.52,0S83,18.5,82.88,18.63s1.66,2,1.66,2A1.06,1.06,0,0,1,83,22.13a17.44,17.44,0,0,0-2.5-2c-.15.15,1.74,1.83,1.74,1.83l.14.14a1.08,1.08,0,1,1-1.52,1.52,15.75,15.75,0,0,0-2.06-1.89c-.12.12,1.39,1.71,1.39,1.71a1.08,1.08,0,1,1-1.52,1.52c-.22-.22-.57-.61-.57-.61a2.47,2.47,0,0,0-.65-2.13,2.4,2.4,0,0,0-1-.62,2.38,2.38,0,0,0-1.62-1.75,2.33,2.33,0,0,0-.59-1,2.37,2.37,0,0,0-1-.61,2.34,2.34,0,0,0-.59-1,2.7,2.7,0,0,0-3.7,0,2.79,2.79,0,0,0-.68,1.08,12.65,12.65,0,0,0-1.32-.46V9.25l2.42.86a2.45,2.45,0,0,0,2.18-.06S74.63,8,76.14,8a2.82,2.82,0,0,1,2.18.86s-2.25,1.2-3.22,1.87a2.44,2.44,0,0,0,1.29,4.52,3.54,3.54,0,0,0,1.45-.48c.64-.3,1.48-.69,2.14-1a1.54,1.54,0,0,1,1.63.3l4.69,4.68h0A1.08,1.08,0,0,1,86.32,20.31Zm5.08-2.82s-1.58.31-1.91.36a2.27,2.27,0,0,1-2.09-.34c-1.15-1.1-5.23-5.14-5.23-5.14a1.55,1.55,0,0,0-1.8-.12c-1,.57-2.56,1.37-3.21,1.68A1.45,1.45,0,0,1,75,12.77a1.5,1.5,0,0,1,.91-1.31c1.45-.89,4.53-2.61,5.81-3.29.78-.41,1.34-.45,2.41.45,1.31,1.1,2.49,2.11,2.49,2.11a1.22,1.22,0,0,0,1,.19c1.46-.31,3.8-.86,3.8-.86ZM104.1,20.2c-.54-.62-.15-1.67.45-2.25h0a1.45,1.45,0,0,1,2.05,0,1.23,1.23,0,0,1,.34.87l-1.7,1.68A1,1,0,0,1,104.1,20.2Zm1.58,1.6a.9.9,0,0,1-.22-.78l1.89-1.89a1.27,1.27,0,0,1,.84.37,1.25,1.25,0,0,1,.34.93l-1.66,1.63A1,1,0,0,1,105.69,21.8Zm1.6,1.65a.87.87,0,0,1-.21-.73L109,20.81a1.26,1.26,0,0,1,.8.36,1.27,1.27,0,0,1,.36.92l-1.64,1.64A1.13,1.13,0,0,1,107.29,23.45Zm4,1.55c-.61.57-1.85.86-2.39.25a.91.91,0,0,1-.23-.89l1.79-1.79a1.29,1.29,0,0,1,1,.38h0A1.45,1.45,0,0,1,111.34,25Zm9.81-4.68a1.08,1.08,0,0,1-1.52,0s-1.78-1.82-1.91-1.68,1.66,2.06,1.66,2.06a1.06,1.06,0,0,1-1.53,1.45,17.44,17.44,0,0,0-2.5-2c-.15.15,1.74,1.83,1.74,1.83l.14.14a1.08,1.08,0,1,1-1.52,1.52s-1.94-2-2.06-1.89,1.39,1.7,1.39,1.7a1.08,1.08,0,1,1-1.52,1.52c-.22-.22-.57-.61-.57-.61a2.47,2.47,0,0,0-.65-2.13,2.4,2.4,0,0,0-1-.62,2.38,2.38,0,0,0-1.62-1.75,2.33,2.33,0,0,0-.59-1,2.37,2.37,0,0,0-1-.61,2.34,2.34,0,0,0-.59-1,2.7,2.7,0,0,0-3.7,0,2.79,2.79,0,0,0-.68,1.08,12.64,12.64,0,0,0-1.32-.46V9.25l2.42.86a2.45,2.45,0,0,0,2.18-.06S109.46,8,111,8a2.82,2.82,0,0,1,2.18.86s-2.25,1.2-3.22,1.87a2.44,2.44,0,0,0,1.29,4.52,3.54,3.54,0,0,0,1.45-.48c.64-.3,1.48-.69,2.14-1a1.54,1.54,0,0,1,1.63.29l4.69,4.69h0A1.08,1.08,0,0,1,121.14,20.31Zm5.08-10.25v7.43s-1.58.31-1.91.36a2.27,2.27,0,0,1-2.09-.34c-1.15-1.1-5.23-5.14-5.23-5.14a1.55,1.55,0,0,0-1.8-.12c-1,.54-2.56,1.34-3.2,1.66a1.45,1.45,0,0,1-2.18-1.15,1.5,1.5,0,0,1,.91-1.31c1.45-.89,4.53-2.61,5.81-3.29.78-.41,1.34-.45,2.41.45,1.31,1.1,2.49,2.11,2.49,2.11a1.22,1.22,0,0,0,1,.19l3.84-.84Zm15.62,11.85a.9.9,0,0,1-.22-.78l1.89-1.89a1.27,1.27,0,0,1,.84.37,1.25,1.25,0,0,1,.34.93L143,22.16A1,1,0,0,1,141.84,21.91Zm1.6,1.65a.87.87,0,0,1-.21-.73l1.92-1.92a1.26,1.26,0,0,1,.8.36,1.27,1.27,0,0,1,.36.92l-1.64,1.64A1.13,1.13,0,0,1,143.44,23.56Zm4,1.55c-.61.57-1.85.86-2.39.25a.91.91,0,0,1-.23-.89l1.79-1.79a1.29,1.29,0,0,1,1,.38h0A1.45,1.45,0,0,1,147.49,25.1Zm9.81-4.68a1.08,1.08,0,0,1-1.52,0s-1.78-1.82-1.91-1.68,1.66,2.06,1.66,2.06A1.06,1.06,0,0,1,154,22.26a17.44,17.44,0,0,0-2.5-2c-.15.15,1.74,1.83,1.74,1.83l.14.14a1.08,1.08,0,0,1-1.52,1.52s-1.94-2-2.06-1.89,1.39,1.7,1.39,1.7A1.08,1.08,0,1,1,149.65,25c-.22-.22-.57-.61-.57-.61a2.47,2.47,0,0,0-.65-2.13,2.4,2.4,0,0,0-1-.62,2.38,2.38,0,0,0-1.62-1.75,2.33,2.33,0,0,0-.59-1,2.37,2.37,0,0,0-1-.61,2.34,2.34,0,0,0-.59-1,2.7,2.7,0,0,0-3.7,0,2.79,2.79,0,0,0-.68,1.08,12.66,12.66,0,0,0-1.32-.46V9.36l2.42.86a2.45,2.45,0,0,0,2.18-.06s3.13-2.07,4.63-2.06a2.82,2.82,0,0,1,2.18.86s-2.25,1.2-3.22,1.87a2.44,2.44,0,0,0,1.29,4.52,3.54,3.54,0,0,0,1.45-.48c.64-.3,1.48-.69,2.14-1a1.54,1.54,0,0,1,1.63.29l4.69,4.69h0A1.08,1.08,0,0,1,157.29,20.42Zm5.08-10.25v7.43s-1.58.31-1.91.36a2.27,2.27,0,0,1-2.09-.34c-1.15-1.1-5.23-5.14-5.23-5.14a1.55,1.55,0,0,0-1.8-.12c-1,.54-2.56,1.34-3.2,1.66A1.45,1.45,0,0,1,146,12.85a1.5,1.5,0,0,1,.91-1.31c1.45-.89,4.53-2.61,5.81-3.29.78-.41,1.34-.45,2.41.45,1.31,1.1,2.49,2.11,2.49,2.11a1.22,1.22,0,0,0,1,.19l3.84-.84Zm13,11.74a.9.9,0,0,1-.22-.78l1.89-1.89a1.27,1.27,0,0,1,.84.37,1.25,1.25,0,0,1,.34.93l-1.66,1.63A1,1,0,0,1,175.39,21.91Zm1.6,1.65a.87.87,0,0,1-.21-.73l1.92-1.92a1.26,1.26,0,0,1,.8.36,1.27,1.27,0,0,1,.36.92l-1.64,1.64A1.13,1.13,0,0,1,177,23.56Zm4,1.55c-.61.57-1.85.86-2.39.25a.91.91,0,0,1-.23-.89l1.79-1.79a1.29,1.29,0,0,1,1,.38h0A1.45,1.45,0,0,1,181,25.1Zm9.81-4.68a1.08,1.08,0,0,1-1.52,0s-1.78-1.82-1.91-1.68,1.66,2.06,1.66,2.06a1.06,1.06,0,0,1-1.53,1.45,17.44,17.44,0,0,0-2.5-2c-.15.15,1.74,1.83,1.74,1.83l.14.14a1.08,1.08,0,0,1-1.52,1.52s-1.94-2-2.06-1.89,1.39,1.7,1.39,1.7A1.08,1.08,0,1,1,183.2,25c-.22-.22-.57-.61-.57-.61a2.47,2.47,0,0,0-.65-2.13,2.4,2.4,0,0,0-1-.62,2.38,2.38,0,0,0-1.62-1.75,2.33,2.33,0,0,0-.59-1,2.37,2.37,0,0,0-1-.61,2.34,2.34,0,0,0-.59-1,2.7,2.7,0,0,0-3.7,0,2.79,2.79,0,0,0-.68,1.08,12.66,12.66,0,0,0-1.32-.46V9.36l2.42.86a2.45,2.45,0,0,0,2.18-.06s3.13-2.07,4.63-2.06a2.82,2.82,0,0,1,2.18.86s-2.25,1.2-3.22,1.87a2.44,2.44,0,0,0,1.29,4.52,3.54,3.54,0,0,0,1.45-.48c.64-.3,1.48-.69,2.14-1a1.54,1.54,0,0,1,1.63.29l4.69,4.69h0A1.08,1.08,0,0,1,190.84,20.42Zm5.08-10.25v7.43s-1.58.31-1.91.36a2.27,2.27,0,0,1-2.09-.34c-1.15-1.1-5.23-5.14-5.23-5.14a1.55,1.55,0,0,0-1.8-.12c-1,.54-2.56,1.34-3.2,1.66a1.45,1.45,0,0,1-2.18-1.15,1.5,1.5,0,0,1,.91-1.31c1.45-.89,4.53-2.61,5.81-3.29.78-.41,1.34-.45,2.41.45,1.31,1.1,2.49,2.11,2.49,2.11a1.22,1.22,0,0,0,1,.19l3.84-.84Z"/></g></g></svg>