<?xml version="1.0" encoding="UTF-8" standalone="no"?><!DOCTYPE svg PUBLIC "-//W3C//DTD SVG 1.1//EN" "http://www.w3.org/Graphics/SVG/1.1/DTD/svg11.dtd"><svg width="100%" height="100%" viewBox="0 0 26 26" version="1.1" xmlns="http://www.w3.org/2000/svg" xmlns:xlink="http://www.w3.org/1999/xlink" xml:space="preserve" style="fill-rule:evenodd;clip-rule:evenodd;stroke-linejoin:round;stroke-miterlimit:1.41421;"><circle cx="13" cy="13" r="13" style="fill:#fff;"/><clipPath id="_clip1"><circle cx="13" cy="13" r="13"/></clipPath><g clip-path="url(#_clip1)"><circle cx="13" cy="13" r="7" style="fill:#50b9ff;"/></g><path d="M13.168,0.001l0.167,0.003l0.167,0.006l0.167,0.007l0.165,0.009l0.166,0.012l0.164,0.014l0.164,0.015l0.164,0.018l0.163,0.02l0.162,0.021l0.162,0.024l0.161,0.026l0.16,0.027l0.16,0.03l0.159,0.031l0.158,0.034l0.157,0.035l0.157,0.037l0.156,0.04l0.156,0.041l0.154,0.043l0.154,0.044l0.153,0.047l0.152,0.048l0.152,0.051l0.15,0.052l0.15,0.053l0.149,0.056l0.148,0.057l0.147,0.059l0.146,0.061l0.145,0.063l0.145,0.064l0.143,0.066l0.143,0.068l0.142,0.069l0.14,0.071l0.14,0.073l0.138,0.074l0.138,0.076l0.137,0.077l0.135,0.079l0.135,0.081l0.133,0.082l0.133,0.084l0.131,0.086l0.13,0.086l0.129,0.089l0.128,0.09l0.127,0.091l0.126,0.093l0.125,0.094l0.123,0.096l0.122,0.097l0.121,0.099l0.12,0.1l0.119,0.102l0.117,0.103l0.116,0.104l0.115,0.105l0.113,0.107l0.113,0.109l0.111,0.109l0.109,0.111l0.109,0.113l0.107,0.113l0.105,0.115l0.104,0.116l0.103,0.117l0.102,0.119l0.1,0.12l0.099,0.121l0.097,0.122l0.096,0.123l0.094,0.125l0.093,0.126l0.091,0.127l0.09,0.128l0.089,0.129l0.086,0.13l0.086,0.131l0.084,0.133l0.082,0.133l0.081,0.135l0.079,0.135l0.077,0.137l0.076,0.138l0.074,0.138l0.073,0.14l0.071,0.14l0.069,0.142l0.068,0.143l0.066,0.143l0.064,0.145l0.063,0.145l0.061,0.146l0.059,0.147l0.057,0.148l0.056,0.149l0.053,0.15l0.052,0.15l0.051,0.152l0.048,0.152l0.047,0.153l0.044,0.154l0.043,0.154l0.041,0.156l0.04,0.156l0.037,0.157l0.035,0.157l0.034,0.158l0.031,0.159l0.03,0.16l0.027,0.16l0.026,0.161l0.024,0.162l0.021,0.162l0.02,0.163l0.018,0.164l0.015,0.164l0.014,0.164l0.012,0.166l0.009,0.165l0.007,0.167l0.006,0.167l0.003,0.167l0.001,0.168l-0.001,0.168l-0.003,0.167l-0.006,0.167l-0.007,0.167l-0.009,0.165l-0.012,0.166l-0.014,0.164l-0.015,0.164l-0.018,0.164l-0.02,0.163l-0.021,0.162l-0.024,0.162l-0.026,0.161l-0.027,0.16l-0.03,0.16l-0.031,0.159l-0.034,0.158l-0.035,0.157l-0.037,0.157l-0.04,0.156l-0.041,0.156l-0.043,0.154l-0.044,0.154l-0.047,0.153l-0.048,0.152l-0.051,0.152l-0.052,0.15l-0.053,0.15l-0.056,0.149l-0.057,0.148l-0.059,0.147l-0.061,0.146l-0.063,0.145l-0.064,0.145l-0.066,0.143l-0.068,0.143l-0.069,0.142l-0.071,0.14l-0.073,0.14l-0.074,0.138l-0.076,0.138l-0.077,0.137l-0.079,0.135l-0.081,0.135l-0.082,0.133l-0.084,0.133l-0.086,0.131l-0.086,0.13l-0.089,0.129l-0.09,0.128l-0.091,0.127l-0.093,0.126l-0.094,0.125l-0.096,0.123l-0.097,0.122l-0.099,0.121l-0.1,0.12l-0.102,0.119l-0.103,0.117l-0.104,0.116l-0.105,0.115l-0.107,0.113l-0.109,0.113l-0.109,0.111l-0.111,0.109l-0.113,0.109l-0.113,0.107l-0.115,0.105l-0.116,0.104l-0.117,0.103l-0.119,0.102l-0.12,0.1l-0.121,0.099l-0.122,0.097l-0.123,0.096l-0.125,0.094l-0.126,0.093l-0.127,0.091l-0.128,0.09l-0.129,0.089l-0.13,0.086l-0.131,0.086l-0.133,0.084l-0.133,0.082l-0.135,0.081l-0.135,0.079l-0.137,0.077l-0.138,0.076l-0.138,0.074l-0.14,0.073l-0.14,0.071l-0.142,0.069l-0.143,0.068l-0.143,0.066l-0.145,0.064l-0.145,0.063l-0.146,0.061l-0.147,0.059l-0.148,0.057l-0.149,0.056l-0.15,0.053l-0.15,0.052l-0.152,0.051l-0.152,0.048l-0.153,0.047l-0.154,0.044l-0.154,0.043l-0.156,0.041l-0.156,0.04l-0.157,0.037l-0.157,0.035l-0.158,0.034l-0.159,0.031l-0.16,0.03l-0.16,0.027l-0.161,0.026l-0.162,0.024l-0.162,0.021l-0.163,0.02l-0.164,0.018l-0.164,0.015l-0.164,0.014l-0.166,0.012l-0.165,0.009l-0.167,0.007l-0.167,0.006l-0.167,0.003l-0.168,0.001l-0.168,-0.001l-0.167,-0.003l-0.167,-0.006l-0.167,-0.007l-0.165,-0.009l-0.166,-0.012l-0.164,-0.014l-0.164,-0.015l-0.164,-0.018l-0.163,-0.02l-0.162,-0.021l-0.162,-0.024l-0.161,-0.026l-0.16,-0.027l-0.16,-0.03l-0.159,-0.031l-0.158,-0.034l-0.157,-0.035l-0.157,-0.037l-0.156,-0.04l-0.156,-0.041l-0.154,-0.043l-0.154,-0.044l-0.153,-0.047l-0.152,-0.048l-0.152,-0.051l-0.15,-0.052l-0.15,-0.053l-0.149,-0.056l-0.148,-0.057l-0.147,-0.059l-0.146,-0.061l-0.145,-0.063l-0.145,-0.064l-0.143,-0.066l-0.143,-0.068l-0.142,-0.069l-0.14,-0.071l-0.14,-0.073l-0.138,-0.074l-0.138,-0.076l-0.137,-0.077l-0.135,-0.079l-0.135,-0.081l-0.133,-0.082l-0.133,-0.084l-0.131,-0.086l-0.13,-0.086l-0.129,-0.089l-0.128,-0.09l-0.127,-0.091l-0.126,-0.093l-0.125,-0.094l-0.123,-0.096l-0.122,-0.097l-0.121,-0.099l-0.12,-0.1l-0.119,-0.102l-0.117,-0.103l-0.116,-0.104l-0.115,-0.105l-0.113,-0.107l-0.113,-0.109l-0.111,-0.109l-0.109,-0.111l-0.109,-0.113l-0.107,-0.113l-0.105,-0.115l-0.104,-0.116l-0.103,-0.117l-0.102,-0.119l-0.1,-0.12l-0.099,-0.121l-0.097,-0.122l-0.096,-0.123l-0.094,-0.125l-0.093,-0.126l-0.091,-0.127l-0.09,-0.128l-0.089,-0.129l-0.086,-0.13l-0.086,-0.131l-0.084,-0.133l-0.082,-0.133l-0.081,-0.135l-0.079,-0.135l-0.077,-0.137l-0.076,-0.138l-0.074,-0.138l-0.073,-0.14l-0.071,-0.14l-0.069,-0.142l-0.068,-0.143l-0.066,-0.143l-0.064,-0.145l-0.063,-0.145l-0.061,-0.146l-0.059,-0.147l-0.057,-0.148l-0.056,-0.149l-0.053,-0.15l-0.052,-0.15l-0.051,-0.152l-0.048,-0.152l-0.047,-0.153l-0.044,-0.154l-0.043,-0.154l-0.041,-0.156l-0.04,-0.156l-0.037,-0.157l-0.035,-0.157l-0.034,-0.158l-0.031,-0.159l-0.03,-0.16l-0.027,-0.16l-0.026,-0.161l-0.024,-0.162l-0.021,-0.162l-0.02,-0.163l-0.018,-0.164l-0.015,-0.164l-0.014,-0.164l-0.012,-0.166l-0.009,-0.165l-0.007,-0.167l-0.006,-0.167l-0.003,-0.167l-0.001,-0.168l0.001,-0.168l0.003,-0.167l0.006,-0.167l0.007,-0.167l0.009,-0.165l0.012,-0.166l0.014,-0.164l0.015,-0.164l0.018,-0.164l0.02,-0.163l0.021,-0.162l0.024,-0.162l0.026,-0.161l0.027,-0.16l0.03,-0.16l0.031,-0.159l0.034,-0.158l0.035,-0.157l0.037,-0.157l0.04,-0.156l0.041,-0.156l0.043,-0.154l0.044,-0.154l0.047,-0.153l0.048,-0.152l0.051,-0.152l0.052,-0.15l0.053,-0.15l0.056,-0.149l0.057,-0.148l0.059,-0.147l0.061,-0.146l0.063,-0.145l0.064,-0.145l0.066,-0.143l0.068,-0.143l0.069,-0.142l0.071,-0.14l0.073,-0.14l0.074,-0.138l0.076,-0.138l0.077,-0.137l0.079,-0.135l0.081,-0.135l0.082,-0.133l0.084,-0.133l0.086,-0.131l0.086,-0.13l0.089,-0.129l0.09,-0.128l0.091,-0.127l0.093,-0.126l0.094,-0.125l0.096,-0.123l0.097,-0.122l0.099,-0.121l0.1,-0.12l0.102,-0.119l0.103,-0.117l0.104,-0.116l0.105,-0.115l0.107,-0.113l0.109,-0.113l0.109,-0.111l0.111,-0.109l0.113,-0.109l0.113,-0.107l0.115,-0.105l0.116,-0.104l0.117,-0.103l0.119,-0.102l0.12,-0.1l0.121,-0.099l0.122,-0.097l0.123,-0.096l0.125,-0.094l0.126,-0.093l0.127,-0.091l0.128,-0.09l0.129,-0.089l0.13,-0.086l0.131,-0.086l0.133,-0.084l0.133,-0.082l0.135,-0.081l0.135,-0.079l0.137,-0.077l0.138,-0.076l0.138,-0.074l0.14,-0.073l0.14,-0.071l0.142,-0.069l0.143,-0.068l0.143,-0.066l0.145,-0.064l0.145,-0.063l0.146,-0.061l0.147,-0.059l0.148,-0.057l0.149,-0.056l0.15,-0.053l0.15,-0.052l0.152,-0.051l0.152,-0.048l0.153,-0.047l0.154,-0.044l0.154,-0.043l0.156,-0.041l0.156,-0.04l0.157,-0.037l0.157,-0.035l0.158,-0.034l0.159,-0.031l0.16,-0.03l0.16,-0.027l0.161,-0.026l0.162,-0.024l0.162,-0.021l0.163,-0.02l0.164,-0.018l0.164,-0.015l0.164,-0.014l0.166,-0.012l0.165,-0.009l0.167,-0.007l0.167,-0.006l0.167,-0.003l0.168,-0.001l0.168,0.001Zm-0.311,2l-0.142,0.003l-0.141,0.004l-0.141,0.006l-0.142,0.008l-0.139,0.01l-0.139,0.012l-0.138,0.013l-0.139,0.015l-0.139,0.017l-0.136,0.018l-0.137,0.02l-0.136,0.022l-0.136,0.023l-0.135,0.025l-0.134,0.027l-0.134,0.028l-0.134,0.03l-0.132,0.031l-0.131,0.033l-0.132,0.035l-0.13,0.036l-0.131,0.038l-0.129,0.04l-0.127,0.04l-0.128,0.043l-0.128,0.044l-0.126,0.045l-0.128,0.048l-0.124,0.048l-0.124,0.05l-0.123,0.051l-0.122,0.053l-0.123,0.054l-0.122,0.056l-0.121,0.058l-0.12,0.059l-0.118,0.059l-0.116,0.061l-0.12,0.063l-0.116,0.064l-0.115,0.066l-0.116,0.068l-0.113,0.067l-0.113,0.07l-0.111,0.07l-0.112,0.073l-0.111,0.074l-0.108,0.074l-0.109,0.077l-0.108,0.077l-0.106,0.079l-0.105,0.079l-0.105,0.082l-0.103,0.082l-0.103,0.083l-0.102,0.086l-0.101,0.086l-0.099,0.087l-0.097,0.087l-0.098,0.091l-0.096,0.089l-0.095,0.092l-0.095,0.094l-0.092,0.093l-0.092,0.096l-0.09,0.096l-0.09,0.097l-0.089,0.099l-0.086,0.099l-0.087,0.101l-0.084,0.101l-0.083,0.102l-0.084,0.105l-0.081,0.105l-0.08,0.104l-0.078,0.106l-0.077,0.107l-0.077,0.109l-0.075,0.11l-0.073,0.11l-0.073,0.112l-0.07,0.111l-0.07,0.113l-0.068,0.114l-0.067,0.115l-0.065,0.115l-0.064,0.116l-0.064,0.118l-0.061,0.118l-0.06,0.119l-0.059,0.12l-0.057,0.12l-0.056,0.121l-0.054,0.123l-0.053,0.123l-0.051,0.123l-0.05,0.125l-0.049,0.125l-0.047,0.125l-0.045,0.127l-0.044,0.127l-0.043,0.128l-0.041,0.129l-0.039,0.128l-0.037,0.13l-0.037,0.132l-0.035,0.131l-0.033,0.131l-0.031,0.133l-0.03,0.133l-0.028,0.134l-0.027,0.134l-0.025,0.136l-0.023,0.134l-0.022,0.137l-0.02,0.137l-0.018,0.137l-0.017,0.138l-0.015,0.138l-0.013,0.138l-0.012,0.14l-0.01,0.141l-0.008,0.14l-0.006,0.141l-0.004,0.141l-0.003,0.142l-0.001,0.143l0.001,0.143l0.003,0.142l0.004,0.141l0.006,0.141l0.008,0.14l0.01,0.141l0.012,0.14l0.013,0.138l0.015,0.138l0.017,0.138l0.018,0.137l0.02,0.137l0.022,0.136l0.023,0.136l0.025,0.135l0.027,0.135l0.028,0.133l0.03,0.133l0.031,0.133l0.033,0.131l0.035,0.131l0.037,0.132l0.037,0.129l0.039,0.129l0.041,0.129l0.043,0.128l0.044,0.127l0.045,0.127l0.047,0.126l0.049,0.124l0.049,0.124l0.052,0.125l0.053,0.123l0.054,0.121l0.056,0.122l0.058,0.121l0.058,0.118l0.06,0.119l0.062,0.12l0.062,0.116l0.064,0.116l0.066,0.117l0.067,0.115l0.068,0.113l0.07,0.113l0.071,0.112l0.072,0.111l0.073,0.11l0.075,0.11l0.076,0.108l0.078,0.107l0.078,0.107l0.08,0.105l0.082,0.105l0.082,0.103l0.084,0.103l0.085,0.102l0.086,0.1l0.086,0.099l0.088,0.098l0.091,0.098l0.09,0.096l0.091,0.094l0.094,0.095l0.094,0.094l0.094,0.09l0.097,0.091l0.098,0.09l0.098,0.089l0.099,0.087l0.1,0.086l0.102,0.085l0.103,0.083l0.103,0.083l0.105,0.081l0.105,0.079l0.106,0.079l0.107,0.077l0.108,0.076l0.112,0.076l0.109,0.073l0.11,0.072l0.113,0.071l0.114,0.07l0.113,0.068l0.113,0.066l0.117,0.066l0.118,0.066l0.116,0.062l0.117,0.06l0.12,0.061l0.121,0.059l0.119,0.057l0.122,0.056l0.121,0.054l0.124,0.053l0.123,0.051l0.124,0.05l0.126,0.049l0.126,0.047l0.126,0.046l0.126,0.043l0.128,0.042l0.131,0.042l0.127,0.039l0.129,0.037l0.134,0.037l0.13,0.035l0.131,0.033l0.134,0.031l0.132,0.03l0.134,0.029l0.134,0.026l0.135,0.025l0.136,0.023l0.134,0.022l0.137,0.02l0.14,0.019l0.137,0.016l0.137,0.015l0.14,0.013l0.141,0.012l0.139,0.01l0.138,0.008l0.143,0.006l0.141,0.004l0.142,0.003l0.143,0.001l0.143,-0.001l0.142,-0.003l0.141,-0.004l0.143,-0.006l0.138,-0.008l0.139,-0.01l0.141,-0.012l0.14,-0.013l0.137,-0.015l0.137,-0.016l0.14,-0.019l0.137,-0.02l0.134,-0.022l0.136,-0.023l0.135,-0.025l0.134,-0.026l0.134,-0.029l0.132,-0.03l0.134,-0.031l0.131,-0.033l0.13,-0.035l0.134,-0.037l0.128,-0.037l0.128,-0.039l0.131,-0.042l0.128,-0.042l0.126,-0.043l0.126,-0.046l0.126,-0.047l0.126,-0.049l0.124,-0.05l0.123,-0.051l0.124,-0.053l0.121,-0.054l0.122,-0.056l0.119,-0.057l0.121,-0.059l0.12,-0.061l0.117,-0.06l0.116,-0.062l0.118,-0.066l0.117,-0.066l0.113,-0.066l0.113,-0.068l0.114,-0.07l0.113,-0.071l0.11,-0.072l0.109,-0.073l0.112,-0.076l0.108,-0.076l0.107,-0.077l0.106,-0.079l0.106,-0.079l0.104,-0.082l0.103,-0.082l0.102,-0.083l0.103,-0.086l0.1,-0.085l0.099,-0.087l0.099,-0.089l0.097,-0.089l0.097,-0.091l0.094,-0.092l0.094,-0.093l0.094,-0.094l0.091,-0.095l0.09,-0.096l0.091,-0.098l0.088,-0.098l0.086,-0.099l0.086,-0.1l0.086,-0.102l0.083,-0.103l0.082,-0.103l0.081,-0.104l0.08,-0.106l0.079,-0.107l0.078,-0.107l0.076,-0.109l0.074,-0.108l0.074,-0.11l0.072,-0.112l0.071,-0.112l0.07,-0.113l0.068,-0.113l0.067,-0.115l0.066,-0.117l0.064,-0.116l0.062,-0.116l0.062,-0.119l0.06,-0.119l0.059,-0.119l0.057,-0.121l0.056,-0.122l0.054,-0.121l0.053,-0.123l0.051,-0.124l0.05,-0.124l0.049,-0.125l0.047,-0.126l0.045,-0.127l0.044,-0.127l0.043,-0.128l0.041,-0.129l0.039,-0.129l0.038,-0.13l0.036,-0.13l0.035,-0.132l0.033,-0.131l0.031,-0.133l0.03,-0.133l0.028,-0.134l0.027,-0.134l0.025,-0.135l0.023,-0.136l0.022,-0.136l0.02,-0.136l0.018,-0.138l0.017,-0.138l0.015,-0.138l0.013,-0.139l0.012,-0.14l0.01,-0.139l0.008,-0.141l0.006,-0.141l0.004,-0.142l0.003,-0.142l0.001,-0.142l-0.001,-0.142l-0.003,-0.142l-0.004,-0.142l-0.006,-0.141l-0.008,-0.141l-0.01,-0.139l-0.012,-0.14l-0.013,-0.139l-0.015,-0.138l-0.017,-0.138l-0.018,-0.138l-0.02,-0.136l-0.022,-0.137l-0.023,-0.135l-0.025,-0.135l-0.027,-0.134l-0.028,-0.134l-0.03,-0.133l-0.031,-0.133l-0.033,-0.131l-0.035,-0.132l-0.036,-0.13l-0.038,-0.131l-0.039,-0.128l-0.041,-0.129l-0.043,-0.128l-0.044,-0.127l-0.045,-0.127l-0.047,-0.125l-0.049,-0.126l-0.05,-0.124l-0.051,-0.123l-0.053,-0.123l-0.054,-0.123l-0.056,-0.121l-0.057,-0.12l-0.059,-0.121l-0.06,-0.118l-0.061,-0.118l-0.063,-0.118l-0.065,-0.116l-0.065,-0.115l-0.067,-0.115l-0.068,-0.114l-0.07,-0.113l-0.07,-0.111l-0.073,-0.112l-0.074,-0.11l-0.074,-0.109l-0.077,-0.11l-0.078,-0.107l-0.078,-0.106l-0.079,-0.105l-0.081,-0.104l-0.083,-0.105l-0.083,-0.102l-0.085,-0.101l-0.087,-0.101l-0.086,-0.099l-0.089,-0.099l-0.09,-0.097l-0.09,-0.096l-0.092,-0.096l-0.092,-0.093l-0.095,-0.093l-0.095,-0.093l-0.096,-0.09l-0.097,-0.089l-0.098,-0.088l-0.099,-0.087l-0.101,-0.086l-0.103,-0.086l-0.102,-0.083l-0.103,-0.082l-0.104,-0.081l-0.106,-0.08l-0.106,-0.079l-0.108,-0.077l-0.109,-0.077l-0.108,-0.074l-0.111,-0.074l-0.112,-0.073l-0.111,-0.07l-0.113,-0.07l-0.113,-0.067l-0.116,-0.068l-0.115,-0.066l-0.116,-0.064l-0.12,-0.063l-0.116,-0.061l-0.118,-0.059l-0.12,-0.059l-0.121,-0.058l-0.122,-0.056l-0.123,-0.054l-0.122,-0.053l-0.123,-0.051l-0.124,-0.05l-0.124,-0.048l-0.128,-0.048l-0.126,-0.045l-0.128,-0.044l-0.128,-0.043l-0.127,-0.04l-0.13,-0.04l-0.13,-0.038l-0.13,-0.036l-0.132,-0.035l-0.131,-0.033l-0.132,-0.031l-0.134,-0.03l-0.134,-0.028l-0.134,-0.027l-0.135,-0.025l-0.136,-0.023l-0.136,-0.022l-0.137,-0.02l-0.136,-0.018l-0.139,-0.017l-0.139,-0.015l-0.138,-0.013l-0.139,-0.012l-0.139,-0.01l-0.142,-0.008l-0.141,-0.006l-0.141,-0.004l-0.142,-0.003l-0.143,-0.001l-0.143,0.001Z" style="fill:#50b9ff;"/></svg>