<?xml version="1.0" encoding="UTF-8" standalone="no"?><!DOCTYPE svg PUBLIC "-//W3C//DTD SVG 1.1//EN" "http://www.w3.org/Graphics/SVG/1.1/DTD/svg11.dtd"><svg width="100%" height="100%" viewBox="0 0 20 21" version="1.1" xmlns="http://www.w3.org/2000/svg" xmlns:xlink="http://www.w3.org/1999/xlink" xml:space="preserve" style="fill-rule:evenodd;clip-rule:evenodd;stroke-linejoin:round;stroke-miterlimit:1.41421;"><rect id="icon-search" x="0" y="0.001" width="20" height="20.002" style="fill:none;"/><path d="M12.641,14.153c-0.38,0.27 -0.788,0.499 -1.217,0.681c-0.761,0.322 -1.582,0.492 -2.408,0.503c-0.829,0.01 -1.657,-0.14 -2.428,-0.444c-0.743,-0.293 -1.429,-0.727 -2.013,-1.271c-0.564,-0.525 -1.033,-1.151 -1.376,-1.841c-0.292,-0.588 -0.493,-1.221 -0.592,-1.87c-0.102,-0.67 -0.098,-1.358 0.013,-2.027c0.099,-0.596 0.283,-1.177 0.545,-1.72c0.615,-1.277 1.656,-2.33 2.925,-2.961c0.54,-0.269 1.118,-0.46 1.711,-0.566c0.293,-0.052 0.588,-0.082 0.885,-0.095c0.11,-0.004 0.22,-0.005 0.33,-0.004c0.299,0.005 0.596,0.028 0.891,0.073c0.598,0.091 1.182,0.269 1.73,0.524c1.236,0.578 2.272,1.554 2.923,2.753c0.3,0.551 0.517,1.146 0.643,1.76c0.142,0.691 0.168,1.405 0.079,2.104c-0.083,0.653 -0.268,1.292 -0.547,1.889c-0.164,0.351 -0.361,0.688 -0.586,1.004l4.605,4.605l-1.508,1.508l-4.605,-4.605Zm-3.763,-9.482c-0.603,0.011 -1.198,0.142 -1.745,0.397c-0.81,0.379 -1.491,1.013 -1.927,1.793c-0.204,0.364 -0.353,0.757 -0.442,1.164c-0.108,0.495 -0.126,1.01 -0.056,1.512c0.061,0.433 0.19,0.855 0.379,1.248c0.223,0.464 0.532,0.885 0.905,1.241c0.384,0.367 0.838,0.662 1.33,0.863c0.511,0.209 1.06,0.315 1.611,0.315c0.552,0 1.101,-0.106 1.611,-0.315c0.493,-0.201 0.946,-0.496 1.331,-0.863c0.372,-0.356 0.681,-0.777 0.905,-1.241c0.189,-0.393 0.318,-0.815 0.378,-1.248c0.07,-0.502 0.053,-1.017 -0.056,-1.512c-0.088,-0.407 -0.238,-0.8 -0.441,-1.164c-0.436,-0.78 -1.118,-1.414 -1.927,-1.793c-0.548,-0.255 -1.142,-0.386 -1.745,-0.397c-0.056,0 -0.055,0 -0.111,0Z" style="fill:#808080;"/></svg>