<svg id="Layer_1" data-name="Layer 1" xmlns="http://www.w3.org/2000/svg" viewBox="0 0 64 64" fill="white"><title>icon</title><path d="M9.784,33.753c0-.07-.071.539-.012.274a4.53,4.53,0,0,1-.159.572c.079-.206-.235.387-.261.425.035-.051-.405.394-.413.4.172-.135-.476.3-.379.224-.074.059-.712.166-.472.132a4.649,4.649,0,0,0-.71.01.347.347,0,0,0,.091.009c-.054.006-.569-.167-.493-.134a4.1,4.1,0,0,1-.5-.292c.128.09-.347-.381-.415-.417a.306.306,0,0,0,.054.065,1.475,1.475,0,0,1-.211-.353c0-.007-.091-.189-.058-.115s-.032-.115-.038-.121c-.02-.055-.126-.572-.095-.336a2.225,2.225,0,0,1-.013-.522c0-.009.027-.21.013-.133s.032-.116.032-.127a1.855,1.855,0,0,0,.114-.4.279.279,0,0,0-.037.078,4.379,4.379,0,0,0,.3-.513.168.168,0,0,0-.049.068s.458-.453.475-.467c-.174.14.395-.244.431-.25a.366.366,0,0,0-.08.03c.126,0,.669-.165.5-.148a1.821,1.821,0,0,1,.682-.009c-.116-.04.542.156.479.128-.082-.035.491.278.417.245.107.047.516.579.4.4a5.71,5.71,0,0,1,.293.508c-.109-.254.154.693.114.414,0,1.626,1.989,1.677,1.9.074a4.012,4.012,0,0,0-1.927-3.11,3.95,3.95,0,1,0-.327,6.97,4.033,4.033,0,0,0,2.2-2.9c.11-.588.134-1.288-.521-1.558A.967.967,0,0,0,9.784,33.753Z"/><path d="M11.551,41.284c0,1.318.015,2.637.017,3.955,0,.69.06,2.187-.017,2.559a.577.577,0,0,0-.052.24.2.2,0,0,0,.036-.073l-.175.3c.131-.2-.2.183-.184.171.2-.162-.281.145-.229.121.223-.095-.343.051-.089.025-.614.069-1.2.005-1.439.71a9.319,9.319,0,0,0-.035,2.51v4.228c.036-.216-.031.042-.038.07.1-.216-.157.186-.013-.006l-.057.057c.194-.129-.234.1.006.006a1.56,1.56,0,0,1-.158.045,14.778,14.778,0,0,1-2.82-.011.082.082,0,0,0,.049,0c-.05-.014-.1-.027-.153-.037.232.089-.023-.037-.063-.057.089.064.089.064.006-.013.1.2-.078-.173-.013.007-.019-.045-.05-.286-.038-.077v-4.3c0-1.257.462-3.144-1.3-3.144-.048,0-.233-.044-.1-.005-.055-.016-.357-.112-.163-.033.031.013-.413-.275-.229-.121.009.008-.315-.359-.184-.172a1.881,1.881,0,0,1-.165-.286c.1.225-.045-.346-.019-.1A34.71,34.71,0,0,1,3.925,44.1q0-.979,0-1.96c0-.216.006-1,0-.969.013-.064.108-.35.032-.172,0,.008.256-.4.114-.229.007-.008.342-.3.178-.184a1.845,1.845,0,0,1,.281-.154c-.1.051.314-.052.1-.03,1.118-.094,2.279-.008,3.4-.007H9.741a3.45,3.45,0,0,0,1.134,0,.193.193,0,0,0-.086-.007,1.742,1.742,0,0,1,.207.064.042.042,0,0,0-.037-.013c.063.032.346.207.217.1.008.007.295.341.184.178.012.016.182.38.134.216-.023-.083.092.43.057.165,0,1.1,1.511,1.658,1.876.445a2.653,2.653,0,0,0-1.182-2.524A5.345,5.345,0,0,0,9.023,38.5c-1.425,0-2.906-.118-4.325.011C1.529,38.8,2.012,42.2,2.012,44.52c0,1.327-.294,3.014.233,4.26a2.918,2.918,0,0,0,2.894,1.7l-.953-.953c0,2.048-.1,4.125,0,6.171.109,2.176,1.726,2.4,3.546,2.4,1.593,0,3.227-.055,3.525-1.978a20.6,20.6,0,0,0,.03-3.064V49.526l-.954.953a2.951,2.951,0,0,0,2.812-1.512c.558-1.094.321-2.593.321-3.776a27.136,27.136,0,0,0,0-3.92C13.291,40.094,11.551,40.017,11.551,41.284Z"/><path d="M25.754,33.753c0-.07-.072.539-.013.274a4.365,4.365,0,0,1-.158.572c.079-.206-.235.387-.261.425.035-.051-.4.394-.413.4.172-.135-.476.3-.38.224-.073.059-.711.166-.472.132a4.653,4.653,0,0,0-.71.01.352.352,0,0,0,.091.009c-.053.006-.568-.167-.493-.134a4.181,4.181,0,0,1-.5-.292c.129.09-.346-.381-.414-.417a.306.306,0,0,0,.054.065,1.478,1.478,0,0,1-.212-.353c0-.007-.09-.189-.057-.115s-.032-.115-.038-.121c-.021-.055-.127-.572-.095-.336a2.225,2.225,0,0,1-.013-.522c0-.009.027-.21.013-.133s.031-.116.031-.127a1.8,1.8,0,0,0,.115-.4.254.254,0,0,0-.037.078,4.379,4.379,0,0,0,.3-.513.159.159,0,0,0-.049.068s.458-.453.475-.467c-.175.14.394-.244.431-.25a.4.4,0,0,0-.081.03c.126,0,.67-.165.5-.148a1.821,1.821,0,0,1,.682-.009c-.116-.04.542.156.478.128-.081-.035.492.278.418.245.106.047.516.579.4.4a5.465,5.465,0,0,1,.292.508c-.109-.254.155.693.115.414,0,1.626,1.989,1.677,1.9.074a4.015,4.015,0,0,0-1.927-3.11,3.95,3.95,0,1,0-.327,6.97,4.036,4.036,0,0,0,2.2-2.9c.11-.588.133-1.288-.522-1.558A.964.964,0,0,0,25.754,33.753Z"/><path d="M26.3,41.538c.356,1.491.724,2.978,1.084,4.468q.271,1.117.533,2.236c.072.31.133.625.215.932.027.1.043.316.042.142a.707.707,0,0,1,0,.172c.042-.249-.121.273-.019.083-.008.014-.157.223-.105.173-.036.038-.073.076-.111.113l-.133.114c.173-.144-.356.177-.261.133.179-.076-.18.034-.18.054a.115.115,0,0,0,.075-.01c-.112-.273-1.329.109-1.494.278-.457.471-.383,1.409-.461,2-.131,1.009-.248,2.8-.45,3.495a.255.255,0,0,1-.049.148c.041-.066.014.045-.008.011.006.007-.172.146.006.013.045-.036-.245.161-.073.05a.231.231,0,0,1-.149.052,16.376,16.376,0,0,1-2.2-.012c.081,0-.184-.1-.021-.007a.907.907,0,0,1-.14-.089c.121.089.006-.007.006-.013-.006.013.1.12.026.032-.023-.033-.044-.066-.065-.1.093.125-.012,0,0,0-.019-.1-.023-.108-.012-.038-.158-1.416-.363-2.86-.547-4.285-.168-1.3-.573-1.551-1.824-1.551a.052.052,0,0,0,.045.012l-.153-.035c-.057-.013-.108-.032-.165-.051.137.045-.233-.115-.245-.132.135.179-.271-.352-.124-.135-.044-.07-.089-.14-.127-.216.1.2-.019-.229,0,.006a1.629,1.629,0,0,1-.006-.171c0,.171-.006.01.013-.077.057-.26.125-.519.187-.778q.3-1.25.6-2.5a39.338,39.338,0,0,1,1.24-5.036c-.019.047.187-.317.222-.362-.121.183.095-.147.141-.163-.128.044.128-.046.152-.059-.234.129.315-.059.05-.026.421-.046,3.679.15,3.713-.014a.113.113,0,0,0-.075-.011.769.769,0,0,0,.214.076c-.2-.036.122.079.171.114-.207-.147.114.136.134.159-.115-.142.147.265.177.356a3.012,3.012,0,0,0,.395.871.975.975,0,0,0,1.354-.013c.7-.731-.121-2.12-.7-2.686-.838-.826-1.893-.773-2.99-.767-1.165.006-2.58-.247-3.6.446A4.4,4.4,0,0,0,19.081,41.8c-.379,1.536-.74,3.077-1.1,4.617-.292,1.245-1.008,2.886-.39,4.123s1.935,1.512,3.2,1.512l-.953-.953c.211,1.635.366,3.291.629,4.918.289,1.791,1.555,2.066,3.157,2.088,1.492.021,2.875-.114,3.26-1.806.381-1.677.456-3.495.681-5.2l-.953.953a3.27,3.27,0,0,0,3.2-1.549c.659-1.3-.158-3.1-.47-4.4-.378-1.584-.707-3.191-1.144-4.759-.145-.518-.378-1.02-1-1.016A.971.971,0,0,0,26.3,41.538Z"/><path d="M41.718,33.753c0-.07-.072.539-.013.274a4.369,4.369,0,0,1-.159.572c.079-.206-.235.387-.261.425.036-.051-.4.394-.413.4.172-.135-.476.3-.379.224-.074.059-.711.166-.472.132a4.649,4.649,0,0,0-.71.01.347.347,0,0,0,.091.009c-.054.006-.569-.167-.493-.134a4.1,4.1,0,0,1-.5-.292c.128.09-.347-.381-.415-.417a.306.306,0,0,0,.054.065,1.475,1.475,0,0,1-.211-.353c0-.007-.091-.189-.058-.115s-.032-.115-.038-.121c-.02-.055-.126-.572-.095-.336a2.225,2.225,0,0,1-.013-.522c0-.009.027-.21.013-.133s.032-.116.032-.127a1.855,1.855,0,0,0,.114-.4.279.279,0,0,0-.037.078,4.379,4.379,0,0,0,.3-.513.168.168,0,0,0-.049.068s.458-.453.476-.467c-.175.14.394-.244.43-.25a.366.366,0,0,0-.08.03c.126,0,.669-.165.5-.148a1.821,1.821,0,0,1,.682-.009c-.116-.04.542.156.479.128-.082-.035.491.278.417.245.107.047.516.579.4.4a5.71,5.71,0,0,1,.293.508c-.109-.254.154.693.114.414.032.609.187,1.321.96,1.309.707-.011.973-.632.939-1.235a4.012,4.012,0,0,0-1.927-3.11,3.95,3.95,0,1,0-.327,6.97,4.033,4.033,0,0,0,2.2-2.9c.11-.588.134-1.288-.521-1.558A.966.966,0,0,0,41.718,33.753Z"/><path d="M43.484,41.284c0,1.318.015,2.637.017,3.955,0,.69.06,2.187-.017,2.559a.577.577,0,0,0-.052.24.2.2,0,0,0,.036-.073l-.175.3c.131-.2-.2.183-.184.171.2-.162-.281.145-.229.121.223-.095-.343.051-.089.025-.614.069-1.2.005-1.439.71a9.319,9.319,0,0,0-.035,2.51v4.228c.036-.216-.031.042-.038.07.095-.216-.157.186-.013-.006l-.057.057c.194-.129-.234.1.006.006a1.56,1.56,0,0,1-.158.045,14.778,14.778,0,0,1-2.82-.011.082.082,0,0,0,.049,0c-.05-.014-.1-.027-.153-.037.232.089-.023-.037-.063-.057.089.064.089.064.006-.013.1.2-.078-.173-.013.007-.019-.045-.05-.286-.038-.077v-4.3c0-1.257.462-3.144-1.3-3.144-.048,0-.233-.044-.1-.005-.055-.016-.357-.112-.163-.033.031.013-.413-.275-.229-.121.009.008-.314-.359-.184-.172a1.881,1.881,0,0,1-.165-.286c.1.225-.044-.346-.019-.1a34.71,34.71,0,0,1-.007-3.762q0-.979,0-1.96c0-.216.006-1,0-.969.013-.064.108-.35.032-.172,0,.008.257-.4.114-.229.007-.008.342-.3.178-.184a1.845,1.845,0,0,1,.281-.154c-.1.051.314-.052.1-.03,1.118-.094,2.279-.008,3.4-.007h1.709a3.45,3.45,0,0,0,1.134,0,.193.193,0,0,0-.086-.007,1.742,1.742,0,0,1,.207.064.041.041,0,0,0-.037-.013c.063.032.346.207.217.1.008.007.3.341.184.178.012.016.182.38.134.216-.023-.084.092.43.057.165a.968.968,0,0,0,1.876.445,2.653,2.653,0,0,0-1.182-2.524,5.343,5.343,0,0,0-3.221-.514c-1.426,0-2.907-.118-4.326.011-3.169.289-2.685,3.684-2.685,6.009,0,1.327-.295,3.014.233,4.26a2.915,2.915,0,0,0,2.893,1.7l-.953-.953c0,2.048-.1,4.125,0,6.171.109,2.176,1.726,2.4,3.547,2.4,1.592,0,3.226-.055,3.524-1.978a20.6,20.6,0,0,0,.03-3.064V49.526l-.954.953a2.951,2.951,0,0,0,2.812-1.512c.558-1.094.321-2.593.321-3.776a27.136,27.136,0,0,0,0-3.92C45.224,40.094,43.484,40.017,43.484,41.284Z"/><path d="M57.687,33.753c0-.07-.071.539-.012.274a4.53,4.53,0,0,1-.159.572c.079-.206-.235.387-.261.425.035-.051-.405.394-.413.4.172-.135-.476.3-.38.224-.073.059-.711.166-.472.132a4.638,4.638,0,0,0-.709.01.34.34,0,0,0,.09.009c-.053.006-.568-.167-.493-.134a4.181,4.181,0,0,1-.5-.292c.129.09-.346-.381-.414-.417a.306.306,0,0,0,.054.065,1.478,1.478,0,0,1-.212-.353c0-.007-.09-.189-.057-.115s-.032-.115-.038-.121c-.021-.055-.127-.572-.1-.336a2.225,2.225,0,0,1-.013-.522c0-.009.027-.21.013-.133s.032-.116.032-.127a1.855,1.855,0,0,0,.114-.4.279.279,0,0,0-.037.078,4.379,4.379,0,0,0,.3-.513.168.168,0,0,0-.049.068s.458-.453.475-.467c-.175.14.4-.244.431-.25a.366.366,0,0,0-.08.03c.125,0,.669-.165.5-.148a1.821,1.821,0,0,1,.682-.009c-.116-.04.542.156.478.128-.081-.035.492.278.418.245.106.047.516.579.4.4a5.465,5.465,0,0,1,.292.508c-.108-.254.155.693.115.414,0,1.626,1.989,1.677,1.9.074a4.012,4.012,0,0,0-1.927-3.11,3.95,3.95,0,1,0-.327,6.97,4.033,4.033,0,0,0,2.2-2.9c.11-.588.134-1.288-.522-1.558A.964.964,0,0,0,57.687,33.753Z"/><path d="M58.234,41.538c.356,1.491.724,2.978,1.085,4.468q.27,1.117.532,2.236c.072.31.133.625.215.932.027.1.043.316.042.142a.707.707,0,0,1,0,.172c.042-.249-.12.273-.019.083-.008.014-.157.223-.1.173-.036.038-.073.076-.111.113l-.133.114c.173-.144-.356.177-.261.133.179-.076-.18.034-.18.054a.115.115,0,0,0,.075-.01c-.112-.273-1.329.109-1.494.278-.457.471-.383,1.409-.461,2-.131,1.009-.248,2.8-.45,3.495a.255.255,0,0,1-.049.148c.041-.066.014.045-.008.011.006.007-.172.146.006.013.046-.036-.245.161-.073.05a.229.229,0,0,1-.149.052,16.376,16.376,0,0,1-2.2-.012c.081,0-.184-.1-.021-.007a.957.957,0,0,1-.14-.089c.121.089.007-.007.007-.013-.007.013.1.12.025.032-.023-.033-.044-.066-.065-.1.093.125-.012,0,0,0-.018-.1-.023-.108-.012-.038-.158-1.416-.363-2.86-.547-4.285-.168-1.3-.573-1.551-1.824-1.551a.052.052,0,0,0,.045.012l-.153-.035c-.057-.013-.108-.032-.165-.051.137.045-.232-.115-.245-.132.135.179-.271-.352-.123-.135-.045-.07-.089-.14-.128-.216.1.2-.019-.229,0,.006a1.629,1.629,0,0,1-.006-.171c0,.171-.006.01.013-.077.057-.26.125-.519.187-.778q.3-1.25.6-2.5a39.338,39.338,0,0,1,1.24-5.036c-.019.047.187-.317.222-.362-.121.183.1-.147.141-.163-.128.044.128-.046.152-.059-.233.129.315-.059.051-.026.42-.046,3.678.15,3.712-.014a.113.113,0,0,0-.075-.011.769.769,0,0,0,.214.076c-.2-.036.122.079.171.114-.207-.147.114.136.134.159-.115-.142.147.265.178.356a2.973,2.973,0,0,0,.394.871.976.976,0,0,0,1.355-.013c.7-.731-.122-2.12-.7-2.686-.838-.826-1.893-.773-2.99-.767-1.165.006-2.58-.247-3.6.446A4.4,4.4,0,0,0,51.014,41.8c-.379,1.536-.74,3.077-1.1,4.617-.293,1.245-1.009,2.886-.391,4.123s1.936,1.512,3.2,1.512l-.953-.953c.211,1.635.366,3.291.629,4.918.289,1.791,1.555,2.066,3.157,2.088,1.492.021,2.875-.114,3.26-1.806.381-1.677.457-3.495.681-5.2l-.953.953a3.27,3.27,0,0,0,3.2-1.549c.659-1.3-.158-3.1-.47-4.4-.378-1.584-.707-3.191-1.144-4.759-.145-.518-.378-1.02-1-1.016A.971.971,0,0,0,58.234,41.538Z"/><path d="M13.737,25.492c0,.172.048-.569.013-.273.02-.14.166-.582.127-.5.036-.079.285-.521.253-.479s.451-.449.4-.4a1.658,1.658,0,0,1,.441-.248,1.605,1.605,0,0,1,.516-.16c-.108-.011.657.011.611,0-.069-.01.446.135.529.167-.09-.036.339.186.432.26a4.37,4.37,0,0,1,.4.392c-.044-.1.214.4.244.46-.055-.122.113.383.127.5a3.1,3.1,0,0,0,.091.626.944.944,0,0,0,.868.595c.99-.016,1.016-1.064.856-1.776A4.034,4.034,0,0,0,16.2,21.545a3.988,3.988,0,0,0-3.967,2.226c-.3.608-.67,1.678-.2,2.281A.956.956,0,0,0,13.737,25.492Z"/><path d="M29.707,25.492c0,.172.047-.569.013-.273.02-.14.165-.582.127-.5.036-.079.284-.521.252-.479s.452-.449.4-.4a1.643,1.643,0,0,1,.441-.248,1.6,1.6,0,0,1,.515-.16c-.108-.011.658.011.611,0-.069-.01.447.135.529.167-.089-.036.34.186.432.26a4.229,4.229,0,0,1,.4.392c-.043-.1.215.4.244.46-.054-.122.113.383.127.5a3.137,3.137,0,0,0,.092.626.944.944,0,0,0,.868.595c.99-.016,1.016-1.064.856-1.776a4.034,4.034,0,0,0-3.442-3.112,3.988,3.988,0,0,0-3.967,2.226c-.3.608-.67,1.678-.2,2.281A.956.956,0,0,0,29.707,25.492Z"/><path d="M45.67,25.492c0,.172.048-.569.013-.273.02-.14.166-.582.127-.5.036-.079.285-.521.253-.479s.451-.449.4-.4a1.639,1.639,0,0,1,.44-.248,1.605,1.605,0,0,1,.516-.16c-.108-.011.657.011.611,0-.069-.01.446.135.529.167-.09-.036.339.186.432.26a4.37,4.37,0,0,1,.4.392c-.044-.1.215.4.244.46-.055-.122.113.383.127.5a3.1,3.1,0,0,0,.091.626.944.944,0,0,0,.868.595c.99-.016,1.016-1.064.856-1.776a4.034,4.034,0,0,0-3.442-3.112,3.988,3.988,0,0,0-3.967,2.226c-.3.608-.67,1.678-.2,2.281A.956.956,0,0,0,45.67,25.492Z"/><path d="M21.725,17.447c0,.171.048-.569.013-.273.02-.14.166-.582.127-.5.036-.079.285-.521.253-.479s.451-.45.4-.4a1.664,1.664,0,0,1,.441-.249,1.627,1.627,0,0,1,.516-.159c-.108-.011.657.011.611,0-.069-.011.446.135.529.166-.09-.035.339.187.432.261a4.37,4.37,0,0,1,.4.392c-.044-.1.214.4.244.46-.055-.122.113.382.127.5a3.107,3.107,0,0,0,.091.626.943.943,0,0,0,.868.594c.99-.015,1.016-1.063.856-1.775A4.034,4.034,0,0,0,24.191,13.5a3.987,3.987,0,0,0-3.967,2.225c-.3.608-.67,1.679-.2,2.282A.957.957,0,0,0,21.725,17.447Z"/><path d="M37.689,17.447c0,.171.047-.569.012-.273.02-.14.166-.582.127-.5.036-.079.285-.521.253-.479s.451-.45.4-.4a2.424,2.424,0,0,1,.956-.408c-.108-.011.657.011.611,0-.069-.011.447.135.529.166-.09-.035.339.187.432.261a4.229,4.229,0,0,1,.4.392c-.043-.1.215.4.244.46-.055-.122.113.382.127.5a3.147,3.147,0,0,0,.092.626.943.943,0,0,0,.868.594c.989-.015,1.015-1.063.856-1.775A4.036,4.036,0,0,0,40.155,13.5a3.987,3.987,0,0,0-3.967,2.225c-.3.608-.671,1.679-.205,2.282A.957.957,0,0,0,37.689,17.447Z"/><path d="M29.707,9.853c0,.171.047-.569.013-.273.02-.14.165-.582.127-.5.036-.079.284-.521.252-.479s.452-.45.4-.4a1.671,1.671,0,0,1,.441-.248,1.622,1.622,0,0,1,.515-.159c-.108-.011.658.011.611,0-.069-.011.447.135.529.166-.089-.035.34.187.432.261a4.229,4.229,0,0,1,.4.392c-.043-.1.215.4.244.46-.054-.122.113.382.127.5a3.147,3.147,0,0,0,.092.626.943.943,0,0,0,.868.594c.99-.015,1.016-1.063.856-1.775a4.034,4.034,0,0,0-3.442-3.112,3.987,3.987,0,0,0-3.967,2.225c-.3.608-.67,1.679-.2,2.282A.956.956,0,0,0,29.707,9.853Z"/></svg>