<svg id="Layer_1" data-name="Layer 1" xmlns="http://www.w3.org/2000/svg" viewBox="0 0 64 64" fill="white"><title>icon</title><path fill="white" d="M17.2,15.14a7.12,7.12,0,0,0-4,13.06h0a7.05,7.05,0,0,0,8-.2l2.25,1.5A8.86,8.86,0,0,0,27,39.36h0a8.83,8.83,0,0,0,10.37-.5L40,40.56a7.06,7.06,0,0,0,3,7.13h0A7.12,7.12,0,1,0,50.8,35.8h0a7.07,7.07,0,0,0-8,.24l-2.42-1.61a8.86,8.86,0,0,0-3.59-9.88h0a8.85,8.85,0,0,0-10.39.52L24,23.5a7.07,7.07,0,0,0-3-7.19h0a7.15,7.15,0,0,0-3.83-1.17Zm0,1.78a5.33,5.33,0,0,1,5.07,6.79.9.9,0,0,0,.36,1l3.32,2.21a.88.88,0,0,0,1.1-.09A7.08,7.08,0,0,1,38.5,34.49a.87.87,0,0,0,.34,1l3.42,2.29a.87.87,0,0,0,1.08-.07A5.34,5.34,0,1,1,44,46.21h0a5.33,5.33,0,0,1-2.21-5.86.88.88,0,0,0-.37-1L37.85,37a.9.9,0,0,0-1.11.09,7.09,7.09,0,0,1-8.75.77h0a7.06,7.06,0,0,1-2.71-8.43.91.91,0,0,0-.34-1.06L21.7,26.21a.9.9,0,0,0-1.08.07,5.32,5.32,0,0,1-6.44.44h0a5.34,5.34,0,0,1,3-9.8Z"/></svg>