<svg id="Layer_1" data-name="Layer 1" xmlns="http://www.w3.org/2000/svg" viewBox="0 0 64 64" fill="white"><title>icon</title><path d="M43,30.68V27.2a2.82,2.82,0,0,0-2.82-2.82H36.74v-1a2.82,2.82,0,0,0-2.82-2.82H30.08a2.82,2.82,0,0,0-2.82,2.82v1H23.78A2.82,2.82,0,0,0,21,27.2v3.48a1.41,1.41,0,0,0,1.14,1.38h.12v5.4A2.82,2.82,0,0,0,25,40.28h13.8a2.82,2.82,0,0,0,2.82-2.82v-5.4h.12A1.42,1.42,0,0,0,43,30.68ZM29.3,23.36a.79.79,0,0,1,.78-.78h3.84a.79.79,0,0,1,.78.78v1H29.3ZM23,27.2a.79.79,0,0,1,.78-.78H40.22a.79.79,0,0,1,.78.78v3a53.59,53.59,0,0,1-5.94.6v-.18a1.74,1.74,0,0,0-1.74-1.74H30.74A1.74,1.74,0,0,0,29,30.62v.18a53.59,53.59,0,0,1-5.94-.6v-3Zm10,3.66v2H31v-2Zm6.66,6.66a.79.79,0,0,1-.78.78H25.1a.79.79,0,0,1-.78-.78v-5.1c1.44.18,3,.3,4.68.42v.36a1.74,1.74,0,0,0,1.74,1.74h2.58a1.74,1.74,0,0,0,1.74-1.74v-.36a36.69,36.69,0,0,0,4.62-.42Z"/><path d="M31,11.9V16a1,1,0,0,0,2,0V11.9a4.26,4.26,0,1,0-5.28-4.14A4.3,4.3,0,0,0,31,11.9Zm1-6.36a2.21,2.21,0,0,1,2.22,2.22,2.22,2.22,0,1,1-4.44,0A2.21,2.21,0,0,1,32,5.54Z"/><path d="M14.84,19.1a4.18,4.18,0,0,0,2.22-.66l2.88,2.88a1,1,0,0,0,1.44,0,1,1,0,0,0,0-1.44L18.5,17a4,4,0,0,0,.66-2.22,4.26,4.26,0,0,0-8.52,0A4.17,4.17,0,0,0,14.84,19.1Zm0-6.48a2.21,2.21,0,0,1,2.22,2.22,2.22,2.22,0,1,1-2.22-2.22Z"/><path d="M11.9,33H16a1,1,0,0,0,0-2H11.9a4.26,4.26,0,1,0-4.14,5.28A4.3,4.3,0,0,0,11.9,33Zm-4.14,1.2a2.22,2.22,0,0,1,0-4.44A2.25,2.25,0,0,1,10,32,2.18,2.18,0,0,1,7.76,34.22Z"/><path d="M19.94,42.62,17.06,45.5a4,4,0,0,0-2.22-.66A4.26,4.26,0,1,0,19.1,49.1a4.18,4.18,0,0,0-.66-2.22L21.32,44a1,1,0,0,0,0-1.44A1,1,0,0,0,19.94,42.62Zm-5.1,8.76a2.22,2.22,0,1,1,0-4.44,2.25,2.25,0,0,1,2.22,2.22A2.18,2.18,0,0,1,14.84,51.38Z"/><path d="M33,52.1V48a1,1,0,0,0-2,0V52.1a4.26,4.26,0,1,0,5.28,4.14A4.3,4.3,0,0,0,33,52.1Zm-1,6.36A2.22,2.22,0,0,1,32,54a2.25,2.25,0,0,1,2.22,2.22A2.18,2.18,0,0,1,32,58.46Z"/><path d="M49.16,44.9a4.18,4.18,0,0,0-2.22.66l-2.88-2.88a1,1,0,0,0-1.44,1.44L45.5,47a4,4,0,0,0-.66,2.22,4.26,4.26,0,0,0,8.52,0A4.17,4.17,0,0,0,49.16,44.9Zm0,6.48a2.22,2.22,0,1,1,0-4.44,2.22,2.22,0,1,1,0,4.44Z"/><path d="M56.24,27.74A4.3,4.3,0,0,0,52.1,31H48a1,1,0,0,0,0,2H52.1a4.26,4.26,0,1,0,4.14-5.28Zm0,6.48A2.22,2.22,0,1,1,58.46,32,2.18,2.18,0,0,1,56.24,34.22Z"/><path d="M43.34,21.68a1.11,1.11,0,0,0,.72-.3l2.88-2.88a4,4,0,0,0,2.22.66A4.26,4.26,0,1,0,44.9,14.9a4.18,4.18,0,0,0,.66,2.22L42.68,20a1,1,0,0,0,0,1.44A1.09,1.09,0,0,0,43.34,21.68Zm5.82-9.06a2.21,2.21,0,0,1,2.22,2.22,2.22,2.22,0,0,1-4.44,0A2.21,2.21,0,0,1,49.16,12.62Z"/></svg>